<svg xmlns="http://www.w3.org/2000/svg" version="1.1" xmlns:xlink="http://www.w3.org/1999/xlink" xmlns:svgjs="http://svgjs.dev/svgjs" width="1500" height="1500" viewBox="0 0 1500 1500"><g transform="matrix(1,0,0,1,0,0)"><svg viewBox="0 0 280 280" data-background-color="#ffffff" preserveAspectRatio="xMidYMid meet" height="1500" width="1500" xmlns="http://www.w3.org/2000/svg" xmlns:xlink="http://www.w3.org/1999/xlink"><g id="tight-bounds" transform="matrix(1,0,0,1,0,0)"><svg viewBox="0 0 280 280" height="280" width="280"><g><svg viewBox="0 0 280 280" height="280" width="280"><g><svg viewBox="0 0 280 280" height="280" width="280"><g id="textblocktransform"><svg viewBox="0 0 280 280" height="280" width="280" id="textblock"><g><svg viewBox="0 0 280 280" height="280" width="280"><g transform="matrix(1,0,0,1,74.00336708925556,85.97194924674915)"><svg viewBox="0 0 131.99326582148888 108.05610150650172" height="108.05610150650172" width="131.99326582148888"><g id="icon-0"><svg xmlns="http://www.w3.org/2000/svg" xmlns:xlink="http://www.w3.org/1999/xlink" version="1.1" x="0" y="0" viewBox="4.3 11.799999999999997 82.45296025615374 67.50000000000001" style="enable-background:new 0 0 91 91;" xml:space="preserve" height="108.05610150650172" width="131.99326582148888" class="icon-xg-0" data-fill-palette-color="accent" id="xg-0"><g fill="#a62a6c" data-fill-palette-color="accent"><path d="M66.8 28.6c1.9 0 3.4-1.5 3.4-3.4 0-1.9-1.5-3.4-3.4-3.4-1.9 0-3.4 1.5-3.4 3.4C63.4 27.1 64.9 28.6 66.8 28.6zM66.8 23.2c1.1 0 2 0.9 2 2 0 1.1-0.9 2-2 2-1.1 0-2-0.9-2-2C64.8 24.1 65.7 23.2 66.8 23.2z" fill="#a62a6c" data-fill-palette-color="accent"></path><path d="M55.7 36c-1.9 0-3.4 1.5-3.4 3.4 0 1.9 1.5 3.4 3.4 3.4 1.9 0 3.4-1.5 3.4-3.4C59.1 37.5 57.5 36 55.7 36zM55.7 41.4c-1.1 0-2-0.9-2-2 0-1.1 0.9-2 2-2s2 0.9 2 2C57.7 40.5 56.8 41.4 55.7 41.4z" fill="#a62a6c" data-fill-palette-color="accent"></path><path d="M26.3 25.5c1.2 0.3 2.6 0.6 4.3 0.9 0 0 0.1 0 0.1 0 0.3 0 0.5-0.1 0.6-0.4 0.8-1.5 2.3-2.4 4-2.3 0.1 0 0.1 0 0.2 0 0.3 0 0.6-0.2 0.7-0.5 1-2.6 2.1-4.8 3.5-6.3 0.2-0.2 0.2-0.6 0.1-0.8-0.2-0.3-0.5-0.4-0.8-0.3-5.1 1.3-9.7 4.4-13 8.6-0.1 0.2-0.2 0.4-0.1 0.7S26.1 25.4 26.3 25.5zM37.3 17.7c-0.8 1.3-1.6 2.8-2.2 4.5-1.9 0.1-3.6 1.1-4.7 2.6-1-0.2-1.9-0.4-2.7-0.5C30.3 21.4 33.7 19.1 37.3 17.7z" fill="#a62a6c" data-fill-palette-color="accent"></path><path d="M62.5 27.6c-2.3 0.5-4.4 0.9-6.3 1.2-0.2 0-0.4 0.1-0.5 0.3-0.1 0.2-0.2 0.3-0.1 0.5 0.3 1.4 0.5 3 0.6 4.9 0 0.3 0.2 0.5 0.5 0.6 1.6 0.4 2.8 1.7 3.2 3.3 0.1 0.3 0.4 0.5 0.7 0.5h8.1c0.2 0 0.4-0.1 0.5-0.2 0.1-0.1 0.2-0.3 0.2-0.5-0.2-2.7-0.8-5.4-1.9-8-0.1-0.3-0.4-0.4-0.6-0.4-0.1 0-0.1 0-0.2 0-1.4 0-2.7-0.7-3.6-1.8C63 27.6 62.8 27.5 62.5 27.6zM66.5 31.1c0.8 2.1 1.4 4.2 1.6 6.4h-6.9c-0.6-1.7-1.9-3.1-3.6-3.7-0.1-1.4-0.3-2.7-0.5-3.8 1.6-0.2 3.3-0.6 5.2-1C63.4 30.3 64.9 31 66.5 31.1z" fill="#a62a6c" data-fill-palette-color="accent"></path><path d="M38.1 24.7c0.8 0.6 1.3 1.4 1.5 2.3 0.1 0.3 0.3 0.5 0.6 0.5 1.7 0.1 3.5 0.2 5.2 0.2 2.4 0 4.8-0.1 7.1-0.3 0.2 0 0.4-0.1 0.5-0.3 0.1-0.2 0.2-0.4 0.1-0.6-1.8-6.7-4.9-10.8-8.1-10.8-2.7 0-5.4 3.1-7.2 8.2C37.8 24.2 37.9 24.5 38.1 24.7zM45.1 17.1c1.9 0 4.6 2.8 6.5 9-3.5 0.3-7.1 0.3-10.8 0.1-0.3-0.9-0.8-1.6-1.5-2.2C41 19.7 43.2 17.1 45.1 17.1z" fill="#a62a6c" data-fill-palette-color="accent"></path><path d="M38.7 28.2c0-1.9-1.5-3.4-3.4-3.4-1.9 0-3.4 1.5-3.4 3.4s1.5 3.4 3.4 3.4C37.2 31.6 38.7 30.1 38.7 28.2zM35.3 30.2c-1.1 0-2-0.9-2-2s0.9-2 2-2c1.1 0 2 0.9 2 2S36.4 30.2 35.3 30.2z" fill="#a62a6c" data-fill-palette-color="accent"></path><path d="M21.7 35.2c1.4 0.5 2.5 1.7 2.8 3.2 0.1 0.3 0.4 0.5 0.7 0.5H33c0.4 0 0.7-0.3 0.7-0.7 0-1.6 0.2-3.3 0.4-5.1 0-0.3-0.1-0.6-0.4-0.7-1.5-0.6-2.6-2-2.8-3.6 0-0.3-0.3-0.5-0.6-0.6-2-0.4-3.8-0.8-5.5-1.2-0.3-0.1-0.6 0.1-0.8 0.3-1.3 2.2-2.2 4.6-2.7 7.1C21.2 34.7 21.4 35 21.7 35.2zM24.9 28.4c1.4 0.4 2.9 0.7 4.6 1 0.4 1.7 1.5 3.2 3.1 4-0.2 1.4-0.3 2.8-0.3 4.1h-6.6c-0.5-1.5-1.6-2.7-3-3.4C23.2 32.1 24 30.1 24.9 28.4z" fill="#a62a6c" data-fill-palette-color="accent"></path><path d="M55 26.5c0.1 0.3 0.4 0.5 0.7 0.5 0 0 0.1 0 0.1 0 1.8-0.2 3.7-0.6 6-1.1 0.3-0.1 0.6-0.4 0.5-0.8 0-0.6 0.1-1.3 0.4-1.9 0.1-0.3 0.1-0.6-0.1-0.8-3.2-3.3-7.2-5.7-11.5-6.8-0.3-0.1-0.6 0-0.8 0.3-0.2 0.3-0.1 0.6 0.1 0.8C52.3 19.1 53.9 22.4 55 26.5zM61.3 23.1c-0.2 0.5-0.3 1-0.4 1.5-1.8 0.4-3.3 0.7-4.8 0.9-0.9-3.1-2-5.8-3.4-7.9C56 18.8 58.9 20.7 61.3 23.1z" fill="#a62a6c" data-fill-palette-color="accent"></path><path d="M54.1 35.1c0.3-0.1 0.5-0.4 0.5-0.7-0.2-1.8-0.4-3.4-0.6-4.8-0.1-0.4-0.4-0.6-0.8-0.6-2.7 0.3-5.4 0.4-8 0.4-1.4 0-3-0.1-4.9-0.2-0.3 0-0.6 0.2-0.7 0.4-0.5 1.4-1.7 2.4-3.1 2.8-0.3 0.1-0.5 0.3-0.5 0.6-0.2 1.8-0.3 3.5-0.4 5 0 0.2 0.1 0.4 0.2 0.5 0.1 0.1 0.3 0.2 0.5 0.2h14.4c0.3 0 0.6-0.2 0.7-0.5C51.6 36.9 52.7 35.7 54.1 35.1zM50.1 37.5H36.9c0.1-1.2 0.1-2.4 0.3-3.7 1.5-0.5 2.7-1.6 3.4-3 1.7 0.1 3.2 0.2 4.5 0.2 2.5 0 5-0.1 7.5-0.3 0.2 1 0.3 2.2 0.5 3.5C51.7 34.7 50.6 36 50.1 37.5z" fill="#a62a6c" data-fill-palette-color="accent"></path><path d="M20.1 42.8c1.9 0 3.4-1.5 3.4-3.4 0-1.9-1.5-3.4-3.4-3.4-1.9 0-3.4 1.5-3.4 3.4C16.7 41.2 18.2 42.8 20.1 42.8zM20.1 37.4c1.1 0 2 0.9 2 2 0 1.1-0.9 2-2 2s-2-0.9-2-2C18.1 38.3 19 37.4 20.1 37.4z" fill="#a62a6c" data-fill-palette-color="accent"></path><path d="M14.2 39.4c0 2.4 1.5 4.6 3.7 5.5 1.6 8.7 7.3 16.3 15.2 20.1 0.2 0.1 0.4 0.1 0.6 0 0 0.2 0.2 0.4 0.4 0.5 3.5 1.5 7.1 2.3 10.9 2.3 3.8 0 7.4-0.8 10.9-2.3 0.2-0.1 0.4-0.3 0.4-0.5 0.1 0.1 0.2 0.1 0.3 0.1 0.1 0 0.2 0 0.3-0.1 9.6-4.6 15.7-14.5 15.7-25.2 0-3.5-0.7-7-1.9-10.3 1.2-1.1 1.9-2.7 1.9-4.3 0-3.3-2.7-5.9-5.9-5.9-0.8 0-1.6 0.2-2.4 0.5-5.2-5.2-12-8-19.3-8-13 0-24.2 9.2-27 22C15.8 34.7 14.2 36.9 14.2 39.4zM35.2 64.4l0.4-6.3c0.1-2 1.7-2.5 2.3-2.6 0.1 0 0.2 0 0.3 0 0.1 0 0.2 0 0.3-0.1l-0.4 0.3c-0.2 0.2-0.3 0.4-0.3 0.6 0 0.2 0.2 0.4 0.4 0.5l1.9 0.9-0.8 1.3c-0.1 0.2-0.1 0.4 0 0.7l3 6.4C39.9 65.9 37.5 65.3 35.2 64.4zM45.4 66.3c-0.1-0.1-0.3-0.2-0.4-0.2l-0.1 0c-0.1 0-0.2 0-0.2 0-0.2 0-0.3 0.1-0.4 0.2 0 0-0.1 0-0.1 0l0.5-9.4c0-0.2-0.1-0.4-0.3-0.6l-0.1-0.1 0.3-0.9h1l0.3 0.9-0.1 0.1c-0.2 0.1-0.3 0.4-0.3 0.6l0.5 9.4C45.8 66.3 45.6 66.3 45.4 66.3zM45 53.2c-2.4 0-4.4-2.3-4.4-5.1 0-2.8 2-5.1 4.4-5.1 2.4 0 4.4 2.3 4.4 5.1C49.4 50.9 47.4 53.2 45 53.2zM47.7 66.2l3-6.4c0.1-0.2 0.1-0.5 0-0.7l-0.8-1.3 1.9-0.9c0.2-0.1 0.4-0.3 0.4-0.5s-0.1-0.5-0.3-0.6l-0.4-0.3c0.2 0 0.4 0.1 0.5 0.1l0.2 0c1.1 0.2 2.3 1 2.4 2.6l0.4 5.2 0.1 1.1C52.6 65.3 50.2 66 47.7 66.2zM18.9 35c0.3-0.1 0.4-0.3 0.5-0.5 2.5-12.3 13.3-21.3 25.7-21.3 7.1 0 13.7 2.8 18.7 7.9 0.2 0.2 0.6 0.3 0.8 0.1 0.7-0.4 1.4-0.6 2.2-0.6 2.5 0 4.5 2 4.5 4.5 0 1.4-0.6 2.7-1.8 3.6-0.2 0.2-0.3 0.5-0.2 0.8 1.3 3.2 2 6.7 2 10.2 0 10.1-5.9 19.5-14.9 23.9 0 0-0.1 0-0.1 0.1L56 58c-0.2-2-1.6-3.6-3.6-3.9l-0.2 0c-0.4-0.1-1.6-0.2-2.4-0.3v0c0 0-0.1 0-0.1 0-0.1 0-0.2 0-0.3 0-0.3 0-0.6 0.3-0.7 0.6-0.1 0.3 0 0.6 0.2 0.7l1.3 1.1-1.6 0.8c-0.2 0.1-0.3 0.2-0.4 0.4-0.1 0.2 0 0.4 0.1 0.6l1 1.7-2 4.2-0.4-6.6 0.2-0.2c0.2-0.2 0.3-0.5 0.2-0.8l-0.6-1.9c0 0 0 0 0-0.1 2.4-0.8 4.1-3.3 4.1-6.2 0-2.8-1.5-5.1-3.7-6.1h3.3c1 2 3 3.2 5.3 3.2 2.2 0 4.2-1.2 5.3-3.2h7.2c-0.4 4.6-2.2 8.9-5.1 12.5-0.2-0.1-0.4-0.1-0.7-0.2-0.3 0-1.6-0.2-2.2-0.3l-0.7 0c1.3-0.7 2.3-2.3 2.3-4.1 0-2.5-1.7-4.5-3.9-4.5-2.1 0-3.9 2-3.9 4.5 0 1.8 0.9 3.3 2.2 4 0 0 0 0 0 0-0.2 0-0.3 0.1-0.4 0.2-0.1 0.1-0.2 0.3-0.2 0.5 0 0.3 0.3 0.6 0.6 0.6 0 0 0.1 0 0.1 0h1.5l2.4 0.1c0.5 0 1.8 0.2 2.2 0.3 0.2 0 0.5 0.1 0.7 0.2 0.3 0.1 0.6 0.1 0.8-0.2 3.4-4.1 5.4-9.1 5.8-14.4 0-0.2-0.1-0.4-0.2-0.5-0.1-0.1-0.3-0.2-0.5-0.2h-8.4c-0.3 0-0.5 0.2-0.6 0.4-0.7 1.7-2.3 2.8-4.2 2.8s-3.5-1.1-4.2-2.8c-0.1-0.3-0.4-0.4-0.6-0.4H24.9c-0.3 0-0.5 0.2-0.6 0.4-0.5 1.2-1.5 2.1-2.7 2.5-0.3 0.1-0.5 0.4-0.5 0.8 0.8 4.2 2.7 8.2 5.4 11.4 0.1 0.2 0.3 0.2 0.5 0.2 0.1 0 0.2 0 0.3-0.1 0.2-0.1 0.4-0.2 0.8-0.2 0.3 0 1.6-0.2 2.1-0.3l2.4-0.1 1.5 0c0 0 0 0 0 0 0.4 0 0.7-0.3 0.8-0.6 0-0.2-0.1-0.4-0.2-0.5 2-0.7 3.5-2.8 3.5-5.4 0-3.1-2.1-5.6-4.8-5.6-2.6 0-4.8 2.5-4.8 5.6 0 2.3 1.2 4.3 2.9 5.2l-1.4 0.1c-0.5 0-1.8 0.2-2.3 0.3-0.2 0-0.4 0.1-0.6 0.1-2.3-2.8-3.9-6.2-4.7-9.8 1.2-0.6 2.2-1.5 2.8-2.7H43c-2.2 0.9-3.7 3.3-3.7 6.1 0 2.9 1.7 5.4 4.1 6.2 0 0 0 0 0 0.1l-0.6 1.9c-0.1 0.3 0 0.6 0.2 0.8l0.2 0.2-0.4 6.6-2-4.2 1-1.7c0.1-0.2 0.1-0.4 0.1-0.6-0.1-0.2-0.2-0.3-0.4-0.4l-1.6-0.8 1.3-1.1c0.2-0.2 0.3-0.5 0.2-0.8-0.1-0.3-0.4-0.5-0.7-0.5l-0.4 0c0 0-0.1 0-0.1 0-0.6 0.1-1.6 0.2-2.2 0.3 0 0-0.1 0-0.1 0-2 0.3-3.5 1.8-3.6 3.9l-0.4 5.8c0 0 0 0-0.1-0.1-7.7-3.7-13.1-11-14.5-19.5 0-0.3-0.2-0.5-0.5-0.6-1.9-0.6-3.2-2.3-3.2-4.3C15.6 37.4 17 35.6 18.9 35zM57.9 53.1c-1.4 0-2.5-1.4-2.5-3.1 0-1.7 1.1-3.1 2.5-3.1 1.4 0 2.5 1.4 2.5 3.1C60.4 51.7 59.2 53.1 57.9 53.1zM33.3 53.1c-1.9 0-3.4-1.9-3.4-4.2 0-2.3 1.5-4.2 3.4-4.2 1.9 0 3.4 1.9 3.4 4.2C36.7 51.2 35.1 53.1 33.3 53.1z" fill="#a62a6c" data-fill-palette-color="accent"></path><path d="M74.9 31.3c0.4 0 0.8 0.1 1.1 0.1 0 0 0.1 0 0.1 0 0.3 0 0.6-0.3 0.7-0.6 0-0.4-0.2-0.7-0.6-0.8-0.4 0-0.8-0.1-1.2-0.1-0.4 0-0.7 0.3-0.8 0.6C74.2 30.9 74.5 31.3 74.9 31.3z" fill="#a62a6c" data-fill-palette-color="accent"></path><path d="M70.5 58c-0.6 0.5-1.3 0.9-1.9 1.4-0.3 0.2-0.4 0.7-0.2 1 0.1 0.2 0.4 0.3 0.6 0.3 0.1 0 0.3 0 0.4-0.1 0.7-0.5 1.3-0.9 2-1.4 0.3-0.2 0.4-0.7 0.1-1C71.3 57.8 70.8 57.7 70.5 58z" fill="#a62a6c" data-fill-palette-color="accent"></path><path d="M73.8 57c0.2 0 0.3-0.1 0.4-0.2 0.4-0.3 0.7-0.6 1.1-0.9 0.3-0.2 0.5-0.5 0.8-0.7 0.3-0.3 0.3-0.7 0.1-1-0.3-0.3-0.7-0.3-1-0.1-0.3 0.2-0.5 0.5-0.8 0.7-0.3 0.3-0.7 0.6-1 0.9-0.3 0.2-0.3 0.7-0.1 1C73.4 56.9 73.6 57 73.8 57z" fill="#a62a6c" data-fill-palette-color="accent"></path><path d="M65.7 61.4c-0.7 0.4-1.3 0.9-2 1.3-0.3 0.2-0.4 0.6-0.2 1 0.1 0.2 0.4 0.3 0.6 0.3 0.1 0 0.3 0 0.4-0.1 0.7-0.4 1.4-0.9 2-1.3 0.3-0.2 0.4-0.6 0.2-1C66.4 61.3 66 61.2 65.7 61.4z" fill="#a62a6c" data-fill-palette-color="accent"></path><path d="M9.9 76.3c-0.7-0.3-1.4-0.7-1.9-1.2-0.3-0.2-0.7-0.2-1 0.1-0.2 0.3-0.2 0.7 0.1 1 0.6 0.5 1.4 1 2.2 1.3 0.1 0 0.2 0.1 0.3 0.1 0.3 0 0.5-0.2 0.6-0.4C10.4 76.8 10.2 76.4 9.9 76.3z" fill="#a62a6c" data-fill-palette-color="accent"></path><path d="M78.2 53c0.2 0 0.4-0.1 0.5-0.2 0.6-0.6 1.1-1.2 1.7-1.8 0.3-0.3 0.2-0.7 0-1-0.3-0.3-0.7-0.2-1 0-0.5 0.6-1.1 1.1-1.6 1.7-0.3 0.3-0.3 0.7 0 1C77.9 52.9 78.1 53 78.2 53z" fill="#a62a6c" data-fill-palette-color="accent"></path><path d="M84.8 36c0.1 0.3 0.2 0.6 0.3 0.9 0.1 0.3 0.4 0.5 0.7 0.5 0.1 0 0.1 0 0.2 0 0.4-0.1 0.6-0.5 0.5-0.9-0.1-0.4-0.2-0.7-0.4-1.1-0.2-0.5-0.5-0.9-0.8-1.3-0.2-0.3-0.7-0.4-1-0.1-0.3 0.2-0.4 0.7-0.1 1C84.4 35.3 84.6 35.7 84.8 36z" fill="#a62a6c" data-fill-palette-color="accent"></path><path d="M86 39.6c-0.4-0.1-0.7 0.2-0.8 0.6-0.1 0.7-0.3 1.4-0.6 2.2-0.1 0.4 0 0.8 0.4 0.9 0.1 0 0.2 0 0.3 0 0.3 0 0.5-0.2 0.7-0.4 0.3-0.8 0.6-1.7 0.7-2.4C86.6 40 86.4 39.6 86 39.6z" fill="#a62a6c" data-fill-palette-color="accent"></path><path d="M33.1 75.8c-0.8 0.2-1.6 0.4-2.3 0.5-0.4 0.1-0.6 0.5-0.5 0.8 0.1 0.3 0.4 0.5 0.7 0.5 0 0 0.1 0 0.2 0 0.8-0.2 1.6-0.4 2.4-0.6 0.4-0.1 0.6-0.5 0.5-0.8C33.8 75.9 33.4 75.7 33.1 75.8z" fill="#a62a6c" data-fill-palette-color="accent"></path><path d="M81.8 48.3c0.1 0.1 0.3 0.1 0.4 0.1 0.2 0 0.4-0.1 0.6-0.3 0.5-0.7 1-1.4 1.4-2 0.2-0.3 0.1-0.8-0.2-1-0.3-0.2-0.8-0.1-1 0.2-0.4 0.6-0.8 1.3-1.3 1.9C81.4 47.6 81.5 48.1 81.8 48.3z" fill="#a62a6c" data-fill-palette-color="accent"></path><path d="M79.5 32.1c0.8 0.2 1.5 0.5 2.1 0.8 0.1 0.1 0.2 0.1 0.3 0.1 0.3 0 0.5-0.1 0.6-0.4 0.2-0.3 0-0.8-0.3-0.9-0.7-0.4-1.5-0.7-2.3-0.9-0.4-0.1-0.8 0.1-0.9 0.5S79.1 32 79.5 32.1z" fill="#a62a6c" data-fill-palette-color="accent"></path><path d="M38.8 74.1c-0.8 0.2-1.5 0.5-2.3 0.7-0.4 0.1-0.6 0.5-0.5 0.9 0.1 0.3 0.4 0.5 0.7 0.5 0.1 0 0.1 0 0.2 0 0.8-0.2 1.5-0.5 2.3-0.7 0.4-0.1 0.6-0.5 0.5-0.9C39.6 74.2 39.2 74 38.8 74.1z" fill="#a62a6c" data-fill-palette-color="accent"></path><path d="M49.9 69.9c-0.7 0.3-1.5 0.6-2.2 0.9-0.4 0.1-0.5 0.6-0.4 0.9 0.1 0.3 0.4 0.4 0.6 0.4 0.1 0 0.2 0 0.3-0.1 0.7-0.3 1.5-0.6 2.2-1 0.4-0.2 0.5-0.6 0.4-0.9C50.7 69.9 50.3 69.7 49.9 69.9z" fill="#a62a6c" data-fill-palette-color="accent"></path><path d="M15.5 77.6c-0.8-0.1-1.6-0.2-2.3-0.3-0.4-0.1-0.7 0.2-0.8 0.5-0.1 0.4 0.2 0.7 0.5 0.8 0.8 0.2 1.6 0.3 2.4 0.4 0 0 0 0 0.1 0 0.4 0 0.7-0.3 0.7-0.6C16.1 78 15.9 77.7 15.5 77.6z" fill="#a62a6c" data-fill-palette-color="accent"></path><path d="M26.8 77.1c-0.6 0.1-1.3 0.2-1.9 0.3-0.4 0-0.7 0.4-0.6 0.8 0 0.4 0.3 0.6 0.7 0.6 0 0 0.1 0 0.1 0 0.6-0.1 1.3-0.2 1.9-0.3l0.4-0.1L27.2 77 26.8 77.1z" fill="#a62a6c" data-fill-palette-color="accent"></path><path d="M5.7 70.5c0-0.4-0.3-0.7-0.7-0.7 0 0 0 0 0 0-0.4 0-0.7 0.3-0.7 0.7 0 0.9 0.2 1.8 0.5 2.6 0.1 0.3 0.4 0.4 0.7 0.4 0.1 0 0.2 0 0.3 0 0.4-0.1 0.5-0.5 0.4-0.9C5.8 71.9 5.7 71.2 5.7 70.5z" fill="#a62a6c" data-fill-palette-color="accent"></path><path d="M60.6 64.5c-0.7 0.4-1.4 0.8-2.1 1.2-0.3 0.2-0.5 0.6-0.3 0.9 0.1 0.2 0.4 0.4 0.6 0.4 0.1 0 0.2 0 0.3-0.1 0.7-0.4 1.4-0.8 2.1-1.2 0.3-0.2 0.4-0.6 0.3-1C61.3 64.4 60.9 64.3 60.6 64.5z" fill="#a62a6c" data-fill-palette-color="accent"></path><path d="M6.9 64.1c-0.3-0.2-0.8 0-0.9 0.3-0.4 0.8-0.7 1.6-1 2.3-0.1 0.4 0.1 0.8 0.4 0.9 0.1 0 0.2 0 0.2 0 0.3 0 0.6-0.2 0.7-0.5 0.2-0.7 0.5-1.4 0.9-2.1C7.4 64.7 7.2 64.3 6.9 64.1z" fill="#a62a6c" data-fill-palette-color="accent"></path><path d="M55.3 67.3c-0.7 0.4-1.4 0.7-2.1 1.1-0.3 0.2-0.5 0.6-0.3 0.9 0.1 0.2 0.4 0.4 0.6 0.4 0.1 0 0.2 0 0.3-0.1 0.7-0.4 1.5-0.7 2.2-1.1 0.3-0.2 0.5-0.6 0.3-0.9S55.7 67.1 55.3 67.3z" fill="#a62a6c" data-fill-palette-color="accent"></path><path d="M9.4 59.3c-0.5 0.7-1 1.3-1.5 1.9-0.2 0.3-0.2 0.8 0.2 1 0.1 0.1 0.3 0.1 0.4 0.1 0.2 0 0.4-0.1 0.6-0.3 0.4-0.6 0.9-1.2 1.4-1.9 0.2-0.3 0.2-0.7-0.1-1C10.1 59 9.7 59 9.4 59.3z" fill="#a62a6c" data-fill-palette-color="accent"></path><path d="M21.4 77.7c-0.8 0.1-1.6 0.1-2.4 0.1-0.4 0-0.7 0.3-0.7 0.7 0 0.4 0.3 0.7 0.7 0.7 0 0 0 0 0 0 0.8 0 1.6 0 2.4-0.1 0.4 0 0.7-0.4 0.7-0.7C22.1 78 21.8 77.7 21.4 77.7z" fill="#a62a6c" data-fill-palette-color="accent"></path><path d="M12.9 57.6c0.3-0.3 0.5-0.5 0.8-0.8 0.3-0.3 0.3-0.7 0-1-0.3-0.3-0.7-0.3-1 0-0.3 0.3-0.6 0.6-0.8 0.8-0.3 0.3-0.3 0.7 0 1 0.1 0.1 0.3 0.2 0.5 0.2C12.6 57.8 12.8 57.7 12.9 57.6z" fill="#a62a6c" data-fill-palette-color="accent"></path><path d="M77.6 55.1c-0.3-0.3-0.7-0.3-1 0-0.3 0.3-0.3 0.7 0 1 7.1 6.7 10.1 12.8 8.2 16.9-2 4.2-9.5 5.8-20 4.2-8-1.2-17-4.1-26-8.3-10.6-5-19.9-11.3-26-17.6-5.8-6-8.2-11.5-6.5-15.2 1.4-2.9 5.1-4.5 10.9-4.8 0.4 0 0.7-0.3 0.7-0.7 0-0.4-0.4-0.7-0.7-0.7C10.7 30.1 6.6 32.1 5 35.4c-2 4.3 0.4 10.2 6.7 16.8C18 58.7 27.4 65 38.2 70.1c1.8 0.9 3.6 1.6 5.4 2.4-0.5 0.2-0.9 0.4-1.4 0.5-0.4 0.1-0.6 0.5-0.4 0.9 0.1 0.3 0.4 0.5 0.7 0.5 0.1 0 0.2 0 0.2 0 0.8-0.3 1.5-0.5 2.3-0.8 0.2-0.1 0.3-0.2 0.4-0.3 6.7 2.6 13.3 4.5 19.3 5.4 2.8 0.4 5.4 0.6 7.7 0.6 7.1 0 12-1.9 13.7-5.6C88.2 68.9 85.2 62.3 77.6 55.1z" fill="#a62a6c" data-fill-palette-color="accent"></path></g></svg></g></svg></g><g id="text-0"><path d="M2.801 91.196l27.129 7.598-1.118 3.992-27.129-7.598z" fill="#e83d95" data-fill-palette-color="primary"></path><path d="M44.819 37.717v0c0.985-1.044 1.936-1.701 2.853-1.969 0.922-0.274 1.812-0.269 2.67 0.015 0.857 0.274 1.694 0.722 2.509 1.343 0.82 0.617 1.623 1.296 2.408 2.037v0l8.753 8.258-2.838 3.008-9.39-8.859c-1.044-0.985-1.97-1.411-2.777-1.278-0.808 0.133-1.513 0.519-2.116 1.157v0c-0.608 0.644-1.09 1.42-1.448 2.327-0.367 0.908-0.575 1.832-0.624 2.773-0.053 0.936 0.059 1.799 0.339 2.588v0l-1.684-1.588 0.449-0.476 10.802 10.191-2.837 3.008-14.682-13.85 2.162-2.291 3.177 1.808-0.624 0.837c-0.11-1.164-0.074-2.287 0.109-3.37 0.187-1.078 0.516-2.096 0.986-3.054 0.465-0.963 1.066-1.834 1.803-2.615z" fill="#e83d95" data-fill-palette-color="primary"></path><path d="M107.668 24.375v0c-1.344 0.422-2.768 0.521-4.272 0.298-1.496-0.219-2.907-0.961-4.232-2.226v0l2.387-2.911c1.041 0.742 1.96 1.227 2.755 1.455 0.789 0.23 1.712 0.18 2.768-0.152v0c0.838-0.263 1.42-0.685 1.744-1.265 0.324-0.58 0.387-1.187 0.188-1.82v0c-0.133-0.422-0.36-0.755-0.683-0.998-0.322-0.243-0.802-0.416-1.439-0.519-0.639-0.109-1.515-0.133-2.627-0.071v0c-2.051 0.096-3.716-0.102-4.995-0.594-1.281-0.498-2.198-1.626-2.751-3.386v0c-0.332-1.056-0.371-2.098-0.117-3.127 0.251-1.035 0.794-1.972 1.628-2.81 0.838-0.847 1.938-1.484 3.301-1.912v0c1.632-0.512 3.133-0.615 4.502-0.306 1.369 0.308 2.528 0.82 3.477 1.534v0l-2.338 3.202c-0.513-0.359-1.198-0.657-2.053-0.896-0.855-0.238-1.823-0.187-2.905 0.153v0c-0.659 0.207-1.206 0.582-1.639 1.127-0.434 0.544-0.548 1.142-0.343 1.795v0c0.207 0.659 0.631 1.113 1.271 1.362 0.641 0.249 1.695 0.315 3.163 0.198v0c2.489-0.177 4.359 0.023 5.609 0.601 1.25 0.578 2.102 1.59 2.557 3.036v0c0.396 1.261 0.413 2.447 0.052 3.559-0.355 1.11-0.977 2.072-1.868 2.886-0.884 0.812-1.931 1.408-3.14 1.787z" fill="#e83d95" data-fill-palette-color="primary"></path><path d="M166.733 17.539l-3.762 1.306-4.349-18.845 4.251 0.855zM159.989 28.878l-4.261-0.857 18.015-24.981 4.262 0.857z" fill="#e83d95" data-fill-palette-color="primary"></path><path d="M232.714 33.938v0c1.102 0.92 1.814 1.83 2.138 2.73 0.329 0.904 0.378 1.792 0.146 2.666-0.222 0.872-0.618 1.734-1.189 2.585-0.566 0.856-1.195 1.698-1.888 2.527v0l-7.714 9.235-3.174-2.651 8.276-9.907c0.92-1.102 1.29-2.052 1.108-2.85-0.181-0.798-0.609-1.479-1.283-2.042v0c-0.68-0.568-1.483-1.003-2.41-1.305-0.928-0.312-1.863-0.464-2.805-0.456-0.938 0.003-1.792 0.168-2.563 0.495v0l1.483-1.776 0.502 0.419-9.52 11.398-3.174-2.651 12.939-15.491 2.417 2.019-1.613 3.281-0.873-0.572c1.155-0.18 2.279-0.212 3.371-0.095 1.087 0.121 2.123 0.388 3.107 0.8 0.989 0.407 1.895 0.954 2.719 1.641z" fill="#e83d95" data-fill-palette-color="primary"></path><path d="M250.453 98.048v0c-0.705-1.942-0.893-3.779-0.566-5.511 0.319-1.736 1.076-3.259 2.27-4.57 1.2-1.313 2.771-2.322 4.714-3.027v0c1.948-0.707 3.801-0.941 5.557-0.701 1.757 0.24 3.318 0.922 4.682 2.047 1.362 1.118 2.396 2.649 3.101 4.591v0c0.668 1.841 0.775 3.697 0.319 5.568-0.452 1.862-1.384 3.432-2.798 4.708v0l-2.903-3.132c0.942-0.806 1.54-1.725 1.793-2.759 0.259-1.036 0.196-2.084-0.188-3.143v0c-0.565-1.557-1.575-2.657-3.028-3.3-1.449-0.651-3.148-0.623-5.097 0.084v0c-1.942 0.705-3.263 1.773-3.964 3.204-0.697 1.423-0.762 2.913-0.197 4.471v0c0.384 1.059 1.005 1.904 1.862 2.535 0.857 0.631 1.905 0.953 3.145 0.968v0l-0.209 4.261c-1.919-0.096-3.647-0.71-5.186-1.843-1.536-1.126-2.639-2.61-3.307-4.451z" fill="#e83d95" data-fill-palette-color="primary"></path><path d="M3.236 136.411c0-5.944 4.818-10.762 10.761-10.762 5.944 0 10.762 4.818 10.762 10.762 0 5.944-4.818 10.762-10.762 10.761-5.944 0-10.762-4.818-10.761-10.761z" fill="#e83d95" data-fill-palette-color="primary"></path><path d="M256.793 136.411c0-5.944 4.818-10.762 10.762-10.762 5.944 0 10.762 4.818 10.762 10.762 0 5.944-4.818 10.762-10.762 10.761-5.944 0-10.762-4.818-10.762-10.761z" fill="#e83d95" data-fill-palette-color="primary"></path></g><g id="text-1"><path d="M37.618 171.874l-27.128 7.598-1.118-3.992 27.128-7.598z" fill="#a62a6c" data-fill-palette-color="secondary"></path><path d="M60.111 220.676v0c0.985 1.044 1.585 2.032 1.8 2.964 0.219 0.936 0.163 1.824-0.17 2.664-0.323 0.84-0.819 1.649-1.487 2.427-0.663 0.783-1.388 1.544-2.173 2.285v0l-8.753 8.258-2.838-3.008 9.39-8.858c1.044-0.985 1.523-1.885 1.438-2.699-0.085-0.814-0.43-1.54-1.033-2.179v0c-0.608-0.644-1.354-1.171-2.239-1.582-0.885-0.42-1.795-0.681-2.732-0.784-0.932-0.108-1.799-0.045-2.603 0.188v0l1.683-1.588 0.449 0.475-10.802 10.192-2.838-3.008 14.681-13.851 2.161 2.291-1.989 3.066-0.799-0.671c1.169-0.042 2.288 0.059 3.357 0.305 1.065 0.249 2.062 0.637 2.992 1.161 0.934 0.521 1.769 1.171 2.505 1.952z" fill="#a62a6c" data-fill-palette-color="secondary"></path><path d="M101.373 268.494v0c-1.344-0.422-2.569-1.155-3.676-2.198-1.102-1.035-1.836-2.45-2.2-4.245v0l3.623-1.024c0.431 1.204 0.907 2.127 1.429 2.769 0.516 0.64 1.302 1.126 2.358 1.457v0c0.838 0.263 1.556 0.25 2.154-0.041 0.597-0.29 0.996-0.753 1.194-1.386v0c0.133-0.422 0.136-0.826 0.011-1.209-0.126-0.384-0.42-0.8-0.884-1.248-0.462-0.454-1.167-0.975-2.115-1.561v0c-1.738-1.094-2.991-2.208-3.759-3.342-0.767-1.141-0.874-2.591-0.321-4.351v0c0.332-1.056 0.895-1.933 1.691-2.633 0.798-0.706 1.779-1.164 2.942-1.375 1.172-0.216 2.439-0.109 3.802 0.319v0c1.632 0.512 2.922 1.287 3.869 2.322 0.947 1.036 1.606 2.118 1.975 3.246v0l-3.748 1.291c-0.216-0.588-0.607-1.224-1.173-1.908-0.566-0.684-1.389-1.196-2.47-1.535v0c-0.659-0.207-1.322-0.211-1.99-0.013-0.667 0.198-1.103 0.624-1.307 1.277v0c-0.207 0.659-0.119 1.274 0.264 1.844 0.383 0.57 1.211 1.227 2.482 1.971v0c2.144 1.278 3.563 2.511 4.259 3.699 0.695 1.189 0.816 2.506 0.361 3.953v0c-0.396 1.261-1.06 2.244-1.991 2.95-0.925 0.708-1.986 1.141-3.182 1.3-1.189 0.161-2.389 0.051-3.598-0.329z" fill="#a62a6c" data-fill-palette-color="secondary"></path><path d="M168.904 266.078l-2.965 2.659-11.295-15.699 4.251-0.855zM167.066 279.143l-4.261 0.857 6.961-30.002 4.261-0.857z" fill="#a62a6c" data-fill-palette-color="secondary"></path><path d="M219.236 222.747v0c1.102-0.92 2.124-1.459 3.067-1.618 0.948-0.163 1.831-0.052 2.649 0.331 0.819 0.373 1.596 0.917 2.332 1.631 0.741 0.709 1.458 1.479 2.151 2.307v0l7.714 9.236-3.174 2.651-8.275-9.908c-0.92-1.102-1.789-1.634-2.607-1.598-0.818 0.036-1.564 0.336-2.238 0.899v0c-0.68 0.568-1.251 1.281-1.714 2.14-0.472 0.858-0.788 1.751-0.947 2.679-0.164 0.923-0.154 1.793 0.03 2.61v0l-1.484-1.776 0.502-0.419 9.521 11.397-3.174 2.651-12.939-15.49 2.417-2.019 2.941 2.171-0.718 0.757c0.029-1.169 0.197-2.28 0.506-3.333 0.313-1.048 0.76-2.02 1.34-2.916 0.576-0.901 1.276-1.695 2.1-2.383z" fill="#a62a6c" data-fill-palette-color="secondary"></path><path d="M270.206 181.942v0c-0.705 1.942-1.738 3.472-3.101 4.591-1.358 1.127-2.916 1.81-4.672 2.05-1.763 0.238-3.616 0.004-5.558-0.7v0c-1.948-0.707-3.519-1.716-4.714-3.027-1.194-1.311-1.954-2.836-2.279-4.574-0.328-1.732-0.139-3.568 0.566-5.51v0c0.668-1.841 1.777-3.333 3.326-4.477 1.541-1.139 3.263-1.745 5.166-1.818v0l0.219 4.265c-1.24 0.014-2.288 0.336-3.145 0.967-0.863 0.629-1.487 1.473-1.871 2.532v0c-0.565 1.557-0.496 3.049 0.206 4.474 0.694 1.429 2.016 2.498 3.964 3.205v0c1.942 0.705 3.641 0.733 5.097 0.084 1.447-0.645 2.453-1.746 3.019-3.304v0c0.384-1.059 0.45-2.106 0.197-3.14-0.253-1.034-0.85-1.953-1.792-2.759v0l2.893-3.135c1.411 1.304 2.343 2.884 2.797 4.74 0.456 1.85 0.35 3.695-0.318 5.536z" fill="#a62a6c" data-fill-palette-color="secondary"></path></g></svg></g></svg></g></svg></g><g></g></svg></g><defs></defs></svg><rect width="280" height="280" fill="none" stroke="none" visibility="hidden"></rect></g></svg></g></svg>