<?xml version="1.0" encoding="UTF-8"?>
<svg xmlns="http://www.w3.org/2000/svg" xmlns:xlink="http://www.w3.org/1999/xlink" width="80px" height="80px" viewBox="0 0 80 80" version="1.1">
<defs>
<clipPath id="clip1">
  <path d="M 25 24.5625 L 53 24.5625 L 53 51 L 25 51 Z M 25 24.5625 "/>
</clipPath>
<clipPath id="clip2">
  <path d="M 57 34 L 58.855469 34 L 58.855469 37 L 57 37 Z M 57 34 "/>
</clipPath>
<clipPath id="clip3">
  <path d="M 57 37 L 58.855469 37 L 58.855469 39 L 57 39 Z M 57 37 "/>
</clipPath>
<clipPath id="clip4">
  <path d="M 24 54 L 27 54 L 27 55.4375 L 24 55.4375 Z M 24 54 "/>
</clipPath>
<clipPath id="clip5">
  <path d="M 30 54 L 32 54 L 32 55.4375 L 30 55.4375 Z M 30 54 "/>
</clipPath>
<clipPath id="clip6">
  <path d="M 21.144531 51 L 23 51 L 23 53 L 21.144531 53 Z M 21.144531 51 "/>
</clipPath>
<clipPath id="clip7">
  <path d="M 21.144531 48 L 23 48 L 23 51 L 21.144531 51 Z M 21.144531 48 "/>
</clipPath>
<clipPath id="clip8">
  <path d="M 27 54 L 30 54 L 30 55.4375 L 27 55.4375 Z M 27 54 "/>
</clipPath>
<clipPath id="clip9">
  <path d="M 21.144531 32 L 58.855469 32 L 58.855469 55.4375 L 21.144531 55.4375 Z M 21.144531 32 "/>
</clipPath>
</defs>
<g id="surface1">
<path style=" stroke:none;fill-rule:nonzero;fill:rgb(65.098039%,16.470588%,42.352941%);fill-opacity:1;" d="M 49.730469 32.246094 C 50.597656 32.246094 51.285156 31.5625 51.285156 30.691406 C 51.285156 29.824219 50.597656 29.136719 49.730469 29.136719 C 48.859375 29.136719 48.175781 29.824219 48.175781 30.691406 C 48.175781 31.5625 48.859375 32.246094 49.730469 32.246094 Z M 49.730469 29.777344 C 50.234375 29.777344 50.644531 30.1875 50.644531 30.691406 C 50.644531 31.195312 50.234375 31.605469 49.730469 31.605469 C 49.226562 31.605469 48.816406 31.195312 48.816406 30.691406 C 48.816406 30.1875 49.226562 29.777344 49.730469 29.777344 Z M 49.730469 29.777344 "/>
<path style=" stroke:none;fill-rule:nonzero;fill:rgb(65.098039%,16.470588%,42.352941%);fill-opacity:1;" d="M 44.652344 35.632812 C 43.785156 35.632812 43.097656 36.316406 43.097656 37.1875 C 43.097656 38.054688 43.785156 38.742188 44.652344 38.742188 C 45.523438 38.742188 46.207031 38.054688 46.207031 37.1875 C 46.207031 36.316406 45.476562 35.632812 44.652344 35.632812 Z M 44.652344 38.101562 C 44.148438 38.101562 43.738281 37.691406 43.738281 37.1875 C 43.738281 36.683594 44.148438 36.273438 44.652344 36.273438 C 45.15625 36.273438 45.566406 36.683594 45.566406 37.1875 C 45.566406 37.691406 45.15625 38.101562 44.652344 38.101562 Z M 44.652344 38.101562 "/>
<path style=" stroke:none;fill-rule:nonzero;fill:rgb(65.098039%,16.470588%,42.352941%);fill-opacity:1;" d="M 31.207031 30.828125 C 31.753906 30.964844 32.394531 31.105469 33.171875 31.242188 C 33.171875 31.242188 33.21875 31.242188 33.21875 31.242188 C 33.355469 31.242188 33.449219 31.195312 33.492188 31.058594 C 33.859375 30.371094 34.546875 29.960938 35.324219 30.007812 C 35.367188 30.007812 35.367188 30.007812 35.414062 30.007812 C 35.550781 30.007812 35.6875 29.914062 35.734375 29.777344 C 36.191406 28.589844 36.695312 27.582031 37.335938 26.894531 C 37.425781 26.804688 37.425781 26.621094 37.378906 26.53125 C 37.289062 26.394531 37.152344 26.347656 37.015625 26.394531 C 34.683594 26.988281 32.578125 28.40625 31.070312 30.328125 C 31.023438 30.417969 30.976562 30.507812 31.023438 30.648438 C 31.070312 30.785156 31.113281 30.785156 31.207031 30.828125 Z M 36.238281 27.261719 C 35.871094 27.855469 35.503906 28.542969 35.230469 29.320312 C 34.363281 29.367188 33.585938 29.824219 33.082031 30.507812 C 32.625 30.417969 32.210938 30.328125 31.847656 30.28125 C 33.035156 28.953125 34.589844 27.902344 36.238281 27.261719 Z M 36.238281 27.261719 "/>
<path style=" stroke:none;fill-rule:nonzero;fill:rgb(65.098039%,16.470588%,42.352941%);fill-opacity:1;" d="M 47.761719 31.789062 C 46.710938 32.019531 45.75 32.203125 44.882812 32.339844 C 44.789062 32.339844 44.699219 32.382812 44.652344 32.476562 C 44.609375 32.566406 44.5625 32.613281 44.609375 32.703125 C 44.746094 33.34375 44.835938 34.078125 44.882812 34.945312 C 44.882812 35.082031 44.972656 35.175781 45.109375 35.21875 C 45.84375 35.402344 46.390625 35.996094 46.574219 36.730469 C 46.621094 36.867188 46.757812 36.957031 46.894531 36.957031 L 50.597656 36.957031 C 50.691406 36.957031 50.78125 36.914062 50.828125 36.867188 C 50.875 36.820312 50.917969 36.730469 50.917969 36.636719 C 50.828125 35.402344 50.554688 34.167969 50.050781 32.980469 C 50.003906 32.84375 49.867188 32.796875 49.777344 32.796875 C 49.730469 32.796875 49.730469 32.796875 49.683594 32.796875 C 49.042969 32.796875 48.449219 32.476562 48.039062 31.972656 C 47.992188 31.789062 47.902344 31.746094 47.761719 31.789062 Z M 49.59375 33.390625 C 49.957031 34.351562 50.234375 35.3125 50.324219 36.316406 L 47.167969 36.316406 C 46.894531 35.539062 46.300781 34.898438 45.523438 34.625 C 45.476562 33.984375 45.386719 33.390625 45.292969 32.886719 C 46.023438 32.796875 46.804688 32.613281 47.671875 32.429688 C 48.175781 33.023438 48.859375 33.34375 49.59375 33.390625 Z M 49.59375 33.390625 "/>
<path style=" stroke:none;fill-rule:nonzero;fill:rgb(65.098039%,16.470588%,42.352941%);fill-opacity:1;" d="M 36.601562 30.464844 C 36.96875 30.738281 37.199219 31.105469 37.289062 31.515625 C 37.335938 31.652344 37.425781 31.746094 37.5625 31.746094 C 38.339844 31.789062 39.164062 31.835938 39.941406 31.835938 C 41.039062 31.835938 42.136719 31.789062 43.191406 31.699219 C 43.28125 31.699219 43.371094 31.652344 43.417969 31.5625 C 43.464844 31.46875 43.507812 31.378906 43.464844 31.285156 C 42.640625 28.222656 41.222656 26.347656 39.757812 26.347656 C 38.523438 26.347656 37.289062 27.765625 36.464844 30.097656 C 36.464844 30.234375 36.511719 30.371094 36.601562 30.464844 Z M 39.804688 26.988281 C 40.675781 26.988281 41.910156 28.269531 42.777344 31.105469 C 41.175781 31.242188 39.53125 31.242188 37.839844 31.148438 C 37.699219 30.738281 37.472656 30.417969 37.152344 30.144531 C 37.929688 28.175781 38.9375 26.988281 39.804688 26.988281 Z M 39.804688 26.988281 "/>
<path style=" stroke:none;fill-rule:nonzero;fill:rgb(65.098039%,16.470588%,42.352941%);fill-opacity:1;" d="M 36.878906 32.0625 C 36.878906 31.195312 36.191406 30.507812 35.324219 30.507812 C 34.453125 30.507812 33.765625 31.195312 33.765625 32.0625 C 33.765625 32.933594 34.453125 33.621094 35.324219 33.621094 C 36.191406 33.621094 36.878906 32.933594 36.878906 32.0625 Z M 35.324219 32.980469 C 34.820312 32.980469 34.40625 32.566406 34.40625 32.0625 C 34.40625 31.5625 34.820312 31.148438 35.324219 31.148438 C 35.824219 31.148438 36.238281 31.5625 36.238281 32.0625 C 36.238281 32.566406 35.824219 32.980469 35.324219 32.980469 Z M 35.324219 32.980469 "/>
<path style=" stroke:none;fill-rule:nonzero;fill:rgb(65.098039%,16.470588%,42.352941%);fill-opacity:1;" d="M 29.101562 35.265625 C 29.742188 35.496094 30.246094 36.042969 30.382812 36.730469 C 30.429688 36.867188 30.566406 36.957031 30.703125 36.957031 L 34.269531 36.957031 C 34.453125 36.957031 34.589844 36.820312 34.589844 36.636719 C 34.589844 35.90625 34.683594 35.128906 34.773438 34.304688 C 34.773438 34.167969 34.726562 34.03125 34.589844 33.984375 C 33.90625 33.710938 33.402344 33.070312 33.308594 32.339844 C 33.308594 32.203125 33.171875 32.109375 33.035156 32.0625 C 32.121094 31.882812 31.296875 31.699219 30.519531 31.515625 C 30.382812 31.46875 30.246094 31.5625 30.152344 31.652344 C 29.558594 32.660156 29.148438 33.757812 28.917969 34.898438 C 28.875 35.039062 28.964844 35.175781 29.101562 35.265625 Z M 30.566406 32.15625 C 31.207031 32.339844 31.890625 32.476562 32.667969 32.613281 C 32.851562 33.390625 33.355469 34.078125 34.085938 34.441406 C 33.996094 35.082031 33.949219 35.722656 33.949219 36.316406 L 30.933594 36.316406 C 30.703125 35.632812 30.199219 35.082031 29.558594 34.761719 C 29.789062 33.847656 30.152344 32.933594 30.566406 32.15625 Z M 30.566406 32.15625 "/>
<path style=" stroke:none;fill-rule:nonzero;fill:rgb(65.098039%,16.470588%,42.352941%);fill-opacity:1;" d="M 44.332031 31.285156 C 44.378906 31.425781 44.515625 31.515625 44.652344 31.515625 C 44.652344 31.515625 44.699219 31.515625 44.699219 31.515625 C 45.523438 31.425781 46.390625 31.242188 47.441406 31.011719 C 47.582031 30.964844 47.71875 30.828125 47.671875 30.648438 C 47.671875 30.371094 47.71875 30.050781 47.855469 29.777344 C 47.902344 29.640625 47.902344 29.503906 47.808594 29.410156 C 46.34375 27.902344 44.515625 26.804688 42.550781 26.300781 C 42.410156 26.253906 42.273438 26.300781 42.183594 26.4375 C 42.09375 26.574219 42.136719 26.714844 42.230469 26.804688 C 43.097656 27.902344 43.828125 29.410156 44.332031 31.285156 Z M 47.214844 29.730469 C 47.121094 29.960938 47.078125 30.1875 47.03125 30.417969 C 46.207031 30.601562 45.523438 30.738281 44.835938 30.828125 C 44.425781 29.410156 43.921875 28.175781 43.28125 27.214844 C 44.789062 27.765625 46.117188 28.632812 47.214844 29.730469 Z M 47.214844 29.730469 "/>
<path style=" stroke:none;fill-rule:nonzero;fill:rgb(65.098039%,16.470588%,42.352941%);fill-opacity:1;" d="M 43.921875 35.21875 C 44.058594 35.175781 44.148438 35.039062 44.148438 34.898438 C 44.058594 34.078125 43.96875 33.34375 43.875 32.703125 C 43.828125 32.523438 43.691406 32.429688 43.507812 32.429688 C 42.273438 32.566406 41.039062 32.613281 39.851562 32.613281 C 39.210938 32.613281 38.480469 32.566406 37.609375 32.523438 C 37.472656 32.523438 37.335938 32.613281 37.289062 32.703125 C 37.0625 33.34375 36.511719 33.800781 35.871094 33.984375 C 35.734375 34.03125 35.644531 34.121094 35.644531 34.261719 C 35.550781 35.082031 35.503906 35.859375 35.460938 36.546875 C 35.460938 36.636719 35.503906 36.730469 35.550781 36.777344 C 35.597656 36.820312 35.6875 36.867188 35.78125 36.867188 L 42.367188 36.867188 C 42.503906 36.867188 42.640625 36.777344 42.6875 36.636719 C 42.777344 36.042969 43.28125 35.496094 43.921875 35.21875 Z M 42.09375 36.316406 L 36.054688 36.316406 C 36.101562 35.769531 36.101562 35.21875 36.191406 34.625 C 36.878906 34.398438 37.425781 33.894531 37.746094 33.253906 C 38.523438 33.300781 39.210938 33.34375 39.804688 33.34375 C 40.949219 33.34375 42.09375 33.300781 43.234375 33.207031 C 43.328125 33.664062 43.371094 34.214844 43.464844 34.808594 C 42.824219 35.039062 42.320312 35.632812 42.09375 36.316406 Z M 42.09375 36.316406 "/>
<path style=" stroke:none;fill-rule:nonzero;fill:rgb(65.098039%,16.470588%,42.352941%);fill-opacity:1;" d="M 28.371094 38.742188 C 29.238281 38.742188 29.925781 38.054688 29.925781 37.1875 C 29.925781 36.316406 29.238281 35.632812 28.371094 35.632812 C 27.5 35.632812 26.816406 36.316406 26.816406 37.1875 C 26.816406 38.011719 27.5 38.742188 28.371094 38.742188 Z M 28.371094 36.273438 C 28.875 36.273438 29.285156 36.683594 29.285156 37.1875 C 29.285156 37.691406 28.875 38.101562 28.371094 38.101562 C 27.867188 38.101562 27.457031 37.691406 27.457031 37.1875 C 27.457031 36.683594 27.867188 36.273438 28.371094 36.273438 Z M 28.371094 36.273438 "/>
<g clip-path="url(#clip1)" clip-rule="nonzero">
<path style=" stroke:none;fill-rule:nonzero;fill:rgb(65.098039%,16.470588%,42.352941%);fill-opacity:1;" d="M 25.671875 37.1875 C 25.671875 38.285156 26.359375 39.292969 27.363281 39.703125 C 28.097656 43.683594 30.703125 47.15625 34.316406 48.894531 C 34.40625 48.941406 34.5 48.941406 34.589844 48.894531 C 34.589844 48.988281 34.683594 49.078125 34.773438 49.125 C 36.375 49.8125 38.019531 50.175781 39.757812 50.175781 C 41.496094 50.175781 43.144531 49.8125 44.746094 49.125 C 44.835938 49.078125 44.925781 48.988281 44.925781 48.894531 C 44.972656 48.941406 45.019531 48.941406 45.066406 48.941406 C 45.109375 48.941406 45.15625 48.941406 45.203125 48.894531 C 49.59375 46.792969 52.382812 42.265625 52.382812 37.371094 C 52.382812 35.769531 52.0625 34.167969 51.515625 32.660156 C 52.0625 32.15625 52.382812 31.425781 52.382812 30.691406 C 52.382812 29.183594 51.148438 27.992188 49.683594 27.992188 C 49.320312 27.992188 48.953125 28.085938 48.585938 28.222656 C 46.207031 25.84375 43.097656 24.5625 39.757812 24.5625 C 33.8125 24.5625 28.691406 28.769531 27.410156 34.625 C 26.402344 35.039062 25.671875 36.042969 25.671875 37.1875 Z M 35.277344 48.621094 L 35.460938 45.738281 C 35.503906 44.824219 36.238281 44.597656 36.511719 44.550781 C 36.558594 44.550781 36.601562 44.550781 36.648438 44.550781 C 36.695312 44.550781 36.742188 44.550781 36.785156 44.503906 L 36.601562 44.640625 C 36.511719 44.734375 36.464844 44.824219 36.464844 44.917969 C 36.464844 45.007812 36.558594 45.101562 36.648438 45.144531 L 37.519531 45.558594 L 37.152344 46.152344 C 37.105469 46.242188 37.105469 46.335938 37.152344 46.472656 L 38.523438 49.398438 C 37.425781 49.308594 36.328125 49.035156 35.277344 48.621094 Z M 39.941406 49.492188 C 39.894531 49.445312 39.804688 49.398438 39.757812 49.398438 L 39.714844 49.398438 C 39.667969 49.398438 39.621094 49.398438 39.621094 49.398438 C 39.53125 49.398438 39.484375 49.445312 39.4375 49.492188 C 39.4375 49.492188 39.394531 49.492188 39.394531 49.492188 L 39.621094 45.191406 C 39.621094 45.101562 39.578125 45.007812 39.484375 44.917969 L 39.4375 44.871094 L 39.578125 44.460938 L 40.035156 44.460938 L 40.171875 44.871094 L 40.125 44.917969 C 40.035156 44.960938 39.988281 45.101562 39.988281 45.191406 L 40.214844 49.492188 C 40.125 49.492188 40.035156 49.492188 39.941406 49.492188 Z M 39.757812 43.5 C 38.660156 43.5 37.746094 42.445312 37.746094 41.167969 C 37.746094 39.886719 38.660156 38.832031 39.757812 38.832031 C 40.855469 38.832031 41.773438 39.886719 41.773438 41.167969 C 41.773438 42.445312 40.855469 43.5 39.757812 43.5 Z M 40.992188 49.445312 L 42.367188 46.519531 C 42.410156 46.425781 42.410156 46.289062 42.367188 46.199219 L 42 45.601562 L 42.871094 45.191406 C 42.960938 45.144531 43.050781 45.054688 43.050781 44.960938 C 43.050781 44.871094 43.007812 44.734375 42.914062 44.6875 L 42.730469 44.550781 C 42.824219 44.550781 42.914062 44.597656 42.960938 44.597656 L 43.050781 44.597656 C 43.554688 44.6875 44.105469 45.054688 44.148438 45.785156 L 44.332031 48.164062 L 44.378906 48.667969 C 43.234375 49.035156 42.136719 49.351562 40.992188 49.445312 Z M 27.820312 35.175781 C 27.957031 35.128906 28.003906 35.039062 28.050781 34.945312 C 29.195312 29.320312 34.132812 25.203125 39.804688 25.203125 C 43.050781 25.203125 46.070312 26.484375 48.359375 28.816406 C 48.449219 28.910156 48.632812 28.953125 48.722656 28.863281 C 49.042969 28.679688 49.363281 28.589844 49.730469 28.589844 C 50.875 28.589844 51.789062 29.503906 51.789062 30.648438 C 51.789062 31.285156 51.515625 31.882812 50.964844 32.292969 C 50.875 32.382812 50.828125 32.523438 50.875 32.660156 C 51.46875 34.121094 51.789062 35.722656 51.789062 37.324219 C 51.789062 41.945312 49.089844 46.242188 44.972656 48.253906 C 44.972656 48.253906 44.925781 48.253906 44.925781 48.300781 L 44.789062 45.695312 C 44.699219 44.78125 44.058594 44.046875 43.144531 43.910156 L 43.050781 43.910156 C 42.871094 43.863281 42.320312 43.820312 41.953125 43.773438 C 41.953125 43.773438 41.910156 43.773438 41.910156 43.773438 C 41.863281 43.773438 41.816406 43.773438 41.773438 43.773438 C 41.632812 43.773438 41.496094 43.910156 41.453125 44.046875 C 41.40625 44.183594 41.453125 44.320312 41.542969 44.367188 L 42.136719 44.871094 L 41.40625 45.238281 C 41.3125 45.28125 41.269531 45.328125 41.222656 45.421875 C 41.175781 45.511719 41.222656 45.601562 41.269531 45.695312 L 41.726562 46.472656 L 40.8125 48.394531 L 40.628906 45.375 L 40.71875 45.28125 C 40.8125 45.191406 40.855469 45.054688 40.8125 44.917969 L 40.535156 44.046875 C 40.535156 44.046875 40.535156 44.046875 40.535156 44.003906 C 41.632812 43.636719 42.410156 42.492188 42.410156 41.167969 C 42.410156 39.886719 41.726562 38.832031 40.71875 38.375 L 42.230469 38.375 C 42.6875 39.292969 43.601562 39.839844 44.652344 39.839844 C 45.660156 39.839844 46.574219 39.292969 47.078125 38.375 L 50.371094 38.375 C 50.1875 40.480469 49.363281 42.445312 48.039062 44.09375 C 47.945312 44.046875 47.855469 44.046875 47.71875 44.003906 C 47.582031 44.003906 46.984375 43.910156 46.710938 43.863281 L 46.390625 43.863281 C 46.984375 43.542969 47.441406 42.8125 47.441406 41.988281 C 47.441406 40.847656 46.664062 39.929688 45.660156 39.929688 C 44.699219 39.929688 43.875 40.847656 43.875 41.988281 C 43.875 42.8125 44.289062 43.5 44.882812 43.820312 C 44.789062 43.820312 44.746094 43.863281 44.699219 43.910156 C 44.652344 43.957031 44.609375 44.046875 44.609375 44.140625 C 44.609375 44.277344 44.746094 44.414062 44.882812 44.414062 C 44.882812 44.414062 44.925781 44.414062 44.925781 44.414062 L 45.613281 44.414062 L 46.710938 44.460938 C 46.941406 44.460938 47.535156 44.550781 47.71875 44.597656 C 47.808594 44.597656 47.945312 44.640625 48.039062 44.6875 C 48.175781 44.734375 48.3125 44.734375 48.402344 44.597656 C 49.957031 42.722656 50.875 40.433594 51.054688 38.011719 C 51.054688 37.917969 51.011719 37.828125 50.964844 37.78125 C 50.917969 37.734375 50.828125 37.691406 50.734375 37.691406 L 46.894531 37.691406 C 46.757812 37.691406 46.664062 37.78125 46.621094 37.875 C 46.300781 38.652344 45.566406 39.152344 44.699219 39.152344 C 43.828125 39.152344 43.097656 38.652344 42.777344 37.875 C 42.730469 37.734375 42.59375 37.691406 42.503906 37.691406 L 30.566406 37.691406 C 30.429688 37.691406 30.335938 37.78125 30.292969 37.875 C 30.0625 38.421875 29.605469 38.832031 29.054688 39.015625 C 28.917969 39.0625 28.828125 39.199219 28.828125 39.382812 C 29.195312 41.304688 30.0625 43.132812 31.296875 44.597656 C 31.34375 44.6875 31.433594 44.6875 31.527344 44.6875 C 31.570312 44.6875 31.617188 44.6875 31.664062 44.640625 C 31.753906 44.597656 31.847656 44.550781 32.03125 44.550781 C 32.167969 44.550781 32.761719 44.460938 32.988281 44.414062 L 34.085938 44.367188 L 34.773438 44.367188 C 34.957031 44.367188 35.09375 44.230469 35.140625 44.09375 C 35.140625 44.003906 35.09375 43.910156 35.046875 43.863281 C 35.964844 43.542969 36.648438 42.585938 36.648438 41.394531 C 36.648438 39.976562 35.6875 38.832031 34.453125 38.832031 C 33.265625 38.832031 32.257812 39.976562 32.257812 41.394531 C 32.257812 42.445312 32.808594 43.363281 33.585938 43.773438 L 32.945312 43.820312 C 32.714844 43.820312 32.121094 43.910156 31.890625 43.957031 C 31.800781 43.957031 31.710938 44.003906 31.617188 44.003906 C 30.566406 42.722656 29.835938 41.167969 29.46875 39.519531 C 30.015625 39.246094 30.472656 38.832031 30.75 38.285156 L 38.84375 38.285156 C 37.839844 38.695312 37.152344 39.792969 37.152344 41.074219 C 37.152344 42.402344 37.929688 43.542969 39.027344 43.910156 C 39.027344 43.910156 39.027344 43.910156 39.027344 43.957031 L 38.753906 44.824219 C 38.707031 44.960938 38.753906 45.101562 38.84375 45.191406 L 38.9375 45.28125 L 38.753906 48.300781 L 37.839844 46.378906 L 38.296875 45.601562 C 38.339844 45.511719 38.339844 45.421875 38.339844 45.328125 C 38.296875 45.238281 38.25 45.191406 38.160156 45.144531 L 37.425781 44.78125 L 38.019531 44.277344 C 38.113281 44.183594 38.160156 44.046875 38.113281 43.910156 C 38.066406 43.773438 37.929688 43.683594 37.792969 43.683594 L 37.609375 43.683594 C 37.609375 43.683594 37.5625 43.683594 37.5625 43.683594 C 37.289062 43.726562 36.832031 43.773438 36.558594 43.820312 C 36.558594 43.820312 36.511719 43.820312 36.511719 43.820312 C 35.597656 43.957031 34.910156 44.640625 34.863281 45.601562 L 34.683594 48.253906 C 34.683594 48.253906 34.683594 48.253906 34.636719 48.210938 C 31.113281 46.519531 28.644531 43.179688 28.003906 39.292969 C 28.003906 39.152344 27.914062 39.0625 27.777344 39.015625 C 26.90625 38.742188 26.3125 37.964844 26.3125 37.050781 C 26.3125 36.273438 26.953125 35.449219 27.820312 35.175781 Z M 45.660156 43.453125 C 45.019531 43.453125 44.515625 42.8125 44.515625 42.035156 C 44.515625 41.257812 45.019531 40.617188 45.660156 40.617188 C 46.300781 40.617188 46.804688 41.257812 46.804688 42.035156 C 46.804688 42.8125 46.253906 43.453125 45.660156 43.453125 Z M 34.40625 43.453125 C 33.539062 43.453125 32.851562 42.585938 32.851562 41.53125 C 32.851562 40.480469 33.539062 39.609375 34.40625 39.609375 C 35.277344 39.609375 35.964844 40.480469 35.964844 41.53125 C 35.964844 42.585938 35.230469 43.453125 34.40625 43.453125 Z M 34.40625 43.453125 "/>
</g>
<path style=" stroke:none;fill-rule:nonzero;fill:rgb(65.098039%,16.470588%,42.352941%);fill-opacity:1;" d="M 53.433594 33.480469 C 53.617188 33.480469 53.800781 33.527344 53.9375 33.527344 C 53.9375 33.527344 53.984375 33.527344 53.984375 33.527344 C 54.121094 33.527344 54.257812 33.390625 54.304688 33.253906 C 54.304688 33.070312 54.210938 32.933594 54.03125 32.886719 C 53.847656 32.886719 53.664062 32.84375 53.480469 32.84375 C 53.296875 32.84375 53.160156 32.980469 53.113281 33.117188 C 53.113281 33.300781 53.25 33.480469 53.433594 33.480469 Z M 53.433594 33.480469 "/>
<path style=" stroke:none;fill-rule:nonzero;fill:rgb(65.098039%,16.470588%,42.352941%);fill-opacity:1;" d="M 51.421875 45.695312 C 51.148438 45.921875 50.828125 46.105469 50.554688 46.335938 C 50.417969 46.425781 50.371094 46.65625 50.460938 46.792969 C 50.507812 46.882812 50.644531 46.929688 50.734375 46.929688 C 50.78125 46.929688 50.875 46.929688 50.917969 46.882812 C 51.238281 46.65625 51.515625 46.472656 51.835938 46.242188 C 51.972656 46.152344 52.015625 45.921875 51.878906 45.785156 C 51.789062 45.601562 51.558594 45.558594 51.421875 45.695312 Z M 51.421875 45.695312 "/>
<path style=" stroke:none;fill-rule:nonzero;fill:rgb(65.098039%,16.470588%,42.352941%);fill-opacity:1;" d="M 52.933594 45.238281 C 53.023438 45.238281 53.070312 45.191406 53.113281 45.144531 C 53.296875 45.007812 53.433594 44.871094 53.617188 44.734375 C 53.753906 44.640625 53.847656 44.503906 53.984375 44.414062 C 54.121094 44.277344 54.121094 44.09375 54.03125 43.957031 C 53.890625 43.820312 53.710938 43.820312 53.570312 43.910156 C 53.433594 44.003906 53.34375 44.140625 53.207031 44.230469 C 53.070312 44.367188 52.886719 44.503906 52.75 44.640625 C 52.613281 44.734375 52.613281 44.960938 52.703125 45.101562 C 52.75 45.191406 52.839844 45.238281 52.933594 45.238281 Z M 52.933594 45.238281 "/>
<path style=" stroke:none;fill-rule:nonzero;fill:rgb(65.098039%,16.470588%,42.352941%);fill-opacity:1;" d="M 49.226562 47.25 C 48.90625 47.433594 48.632812 47.660156 48.3125 47.84375 C 48.175781 47.9375 48.128906 48.117188 48.222656 48.300781 C 48.265625 48.394531 48.402344 48.4375 48.496094 48.4375 C 48.539062 48.4375 48.632812 48.4375 48.679688 48.394531 C 49 48.210938 49.320312 47.980469 49.59375 47.796875 C 49.730469 47.707031 49.777344 47.523438 49.683594 47.339844 C 49.546875 47.203125 49.363281 47.15625 49.226562 47.25 Z M 49.226562 47.25 "/>
<path style=" stroke:none;fill-rule:nonzero;fill:rgb(65.098039%,16.470588%,42.352941%);fill-opacity:1;" d="M 23.707031 54.0625 C 23.386719 53.925781 23.066406 53.746094 22.835938 53.515625 C 22.699219 53.425781 22.515625 53.425781 22.378906 53.5625 C 22.289062 53.699219 22.289062 53.882812 22.425781 54.019531 C 22.699219 54.246094 23.066406 54.476562 23.429688 54.613281 C 23.476562 54.613281 23.523438 54.660156 23.566406 54.660156 C 23.707031 54.660156 23.796875 54.566406 23.84375 54.476562 C 23.933594 54.292969 23.84375 54.109375 23.707031 54.0625 Z M 23.707031 54.0625 "/>
<path style=" stroke:none;fill-rule:nonzero;fill:rgb(65.098039%,16.470588%,42.352941%);fill-opacity:1;" d="M 54.945312 43.40625 C 55.035156 43.40625 55.128906 43.363281 55.171875 43.316406 C 55.449219 43.042969 55.675781 42.765625 55.949219 42.492188 C 56.085938 42.355469 56.042969 42.171875 55.949219 42.035156 C 55.8125 41.898438 55.628906 41.945312 55.492188 42.035156 C 55.265625 42.308594 54.988281 42.539062 54.761719 42.8125 C 54.625 42.949219 54.625 43.132812 54.761719 43.269531 C 54.808594 43.363281 54.898438 43.40625 54.945312 43.40625 Z M 54.945312 43.40625 "/>
<g clip-path="url(#clip2)" clip-rule="nonzero">
<path style=" stroke:none;fill-rule:nonzero;fill:rgb(65.098039%,16.470588%,42.352941%);fill-opacity:1;" d="M 57.964844 35.632812 C 58.007812 35.769531 58.054688 35.90625 58.101562 36.042969 C 58.144531 36.179688 58.28125 36.273438 58.421875 36.273438 C 58.464844 36.273438 58.464844 36.273438 58.511719 36.273438 C 58.695312 36.226562 58.785156 36.042969 58.742188 35.859375 C 58.695312 35.679688 58.648438 35.539062 58.558594 35.359375 C 58.464844 35.128906 58.328125 34.945312 58.191406 34.761719 C 58.101562 34.625 57.871094 34.578125 57.734375 34.71875 C 57.597656 34.808594 57.550781 35.039062 57.6875 35.175781 C 57.78125 35.3125 57.871094 35.496094 57.964844 35.632812 Z M 57.964844 35.632812 "/>
</g>
<g clip-path="url(#clip3)" clip-rule="nonzero">
<path style=" stroke:none;fill-rule:nonzero;fill:rgb(65.098039%,16.470588%,42.352941%);fill-opacity:1;" d="M 58.511719 37.277344 C 58.328125 37.234375 58.191406 37.371094 58.144531 37.554688 C 58.101562 37.875 58.007812 38.191406 57.871094 38.558594 C 57.824219 38.742188 57.871094 38.925781 58.054688 38.972656 C 58.101562 38.972656 58.144531 38.972656 58.191406 38.972656 C 58.328125 38.972656 58.421875 38.878906 58.511719 38.789062 C 58.648438 38.421875 58.785156 38.011719 58.832031 37.691406 C 58.785156 37.460938 58.695312 37.277344 58.511719 37.277344 Z M 58.511719 37.277344 "/>
</g>
<path style=" stroke:none;fill-rule:nonzero;fill:rgb(65.098039%,16.470588%,42.352941%);fill-opacity:1;" d="M 34.316406 53.835938 C 33.949219 53.925781 33.585938 54.019531 33.265625 54.0625 C 33.082031 54.109375 32.988281 54.292969 33.035156 54.429688 C 33.082031 54.566406 33.21875 54.660156 33.355469 54.660156 C 33.355469 54.660156 33.402344 54.660156 33.449219 54.660156 C 33.8125 54.566406 34.179688 54.476562 34.546875 54.382812 C 34.726562 54.339844 34.820312 54.15625 34.773438 54.019531 C 34.636719 53.882812 34.453125 53.789062 34.316406 53.835938 Z M 34.316406 53.835938 "/>
<path style=" stroke:none;fill-rule:nonzero;fill:rgb(65.098039%,16.470588%,42.352941%);fill-opacity:1;" d="M 56.589844 41.257812 C 56.636719 41.304688 56.726562 41.304688 56.773438 41.304688 C 56.863281 41.304688 56.957031 41.257812 57.046875 41.167969 C 57.277344 40.847656 57.503906 40.527344 57.6875 40.25 C 57.78125 40.113281 57.734375 39.886719 57.597656 39.792969 C 57.460938 39.703125 57.230469 39.75 57.140625 39.886719 C 56.957031 40.160156 56.773438 40.480469 56.546875 40.753906 C 56.40625 40.9375 56.453125 41.167969 56.589844 41.257812 Z M 56.589844 41.257812 "/>
<path style=" stroke:none;fill-rule:nonzero;fill:rgb(65.098039%,16.470588%,42.352941%);fill-opacity:1;" d="M 55.539062 33.847656 C 55.90625 33.941406 56.226562 34.078125 56.5 34.214844 C 56.546875 34.261719 56.589844 34.261719 56.636719 34.261719 C 56.773438 34.261719 56.863281 34.214844 56.910156 34.078125 C 57.003906 33.941406 56.910156 33.710938 56.773438 33.664062 C 56.453125 33.480469 56.085938 33.34375 55.722656 33.253906 C 55.539062 33.207031 55.355469 33.300781 55.308594 33.480469 C 55.265625 33.664062 55.355469 33.800781 55.539062 33.847656 Z M 55.539062 33.847656 "/>
<path style=" stroke:none;fill-rule:nonzero;fill:rgb(65.098039%,16.470588%,42.352941%);fill-opacity:1;" d="M 36.921875 53.058594 C 36.558594 53.148438 36.238281 53.285156 35.871094 53.378906 C 35.6875 53.425781 35.597656 53.605469 35.644531 53.789062 C 35.6875 53.925781 35.824219 54.019531 35.964844 54.019531 C 36.007812 54.019531 36.007812 54.019531 36.054688 54.019531 C 36.421875 53.925781 36.742188 53.789062 37.105469 53.699219 C 37.289062 53.652344 37.378906 53.46875 37.335938 53.285156 C 37.289062 53.105469 37.105469 53.011719 36.921875 53.058594 Z M 36.921875 53.058594 "/>
<path style=" stroke:none;fill-rule:nonzero;fill:rgb(65.098039%,16.470588%,42.352941%);fill-opacity:1;" d="M 42 51.136719 C 41.679688 51.273438 41.3125 51.410156 40.992188 51.550781 C 40.8125 51.59375 40.765625 51.824219 40.8125 51.960938 C 40.855469 52.097656 40.992188 52.144531 41.085938 52.144531 C 41.132812 52.144531 41.175781 52.144531 41.222656 52.097656 C 41.542969 51.960938 41.910156 51.824219 42.230469 51.640625 C 42.410156 51.550781 42.457031 51.367188 42.410156 51.230469 C 42.367188 51.136719 42.183594 51.046875 42 51.136719 Z M 42 51.136719 "/>
<g clip-path="url(#clip4)" clip-rule="nonzero">
<path style=" stroke:none;fill-rule:nonzero;fill:rgb(65.098039%,16.470588%,42.352941%);fill-opacity:1;" d="M 26.265625 54.660156 C 25.902344 54.613281 25.535156 54.566406 25.214844 54.523438 C 25.03125 54.476562 24.894531 54.613281 24.847656 54.75 C 24.804688 54.933594 24.941406 55.070312 25.078125 55.117188 C 25.441406 55.207031 25.808594 55.253906 26.175781 55.300781 C 26.175781 55.300781 26.175781 55.300781 26.222656 55.300781 C 26.402344 55.300781 26.539062 55.164062 26.539062 55.023438 C 26.539062 54.84375 26.449219 54.703125 26.265625 54.660156 Z M 26.265625 54.660156 "/>
</g>
<g clip-path="url(#clip5)" clip-rule="nonzero">
<path style=" stroke:none;fill-rule:nonzero;fill:rgb(65.098039%,16.470588%,42.352941%);fill-opacity:1;" d="M 31.433594 54.429688 C 31.160156 54.476562 30.839844 54.523438 30.566406 54.566406 C 30.382812 54.566406 30.246094 54.75 30.292969 54.933594 C 30.292969 55.117188 30.429688 55.207031 30.613281 55.207031 C 30.613281 55.207031 30.65625 55.207031 30.65625 55.207031 C 30.933594 55.164062 31.25 55.117188 31.527344 55.070312 L 31.710938 55.023438 L 31.617188 54.382812 Z M 31.433594 54.429688 "/>
</g>
<g clip-path="url(#clip6)" clip-rule="nonzero">
<path style=" stroke:none;fill-rule:nonzero;fill:rgb(65.098039%,16.470588%,42.352941%);fill-opacity:1;" d="M 21.785156 51.410156 C 21.785156 51.230469 21.648438 51.089844 21.464844 51.089844 C 21.28125 51.089844 21.144531 51.230469 21.144531 51.410156 C 21.144531 51.824219 21.234375 52.234375 21.371094 52.601562 C 21.417969 52.738281 21.554688 52.785156 21.691406 52.785156 C 21.738281 52.785156 21.785156 52.785156 21.828125 52.785156 C 22.011719 52.738281 22.058594 52.554688 22.011719 52.371094 C 21.828125 52.050781 21.785156 51.730469 21.785156 51.410156 Z M 21.785156 51.410156 "/>
</g>
<path style=" stroke:none;fill-rule:nonzero;fill:rgb(65.098039%,16.470588%,42.352941%);fill-opacity:1;" d="M 46.894531 48.667969 C 46.574219 48.851562 46.253906 49.035156 45.933594 49.214844 C 45.796875 49.308594 45.707031 49.492188 45.796875 49.628906 C 45.84375 49.71875 45.980469 49.8125 46.070312 49.8125 C 46.117188 49.8125 46.164062 49.8125 46.207031 49.765625 C 46.527344 49.582031 46.847656 49.398438 47.167969 49.214844 C 47.304688 49.125 47.351562 48.941406 47.304688 48.757812 C 47.214844 48.621094 47.03125 48.574219 46.894531 48.667969 Z M 46.894531 48.667969 "/>
<g clip-path="url(#clip7)" clip-rule="nonzero">
<path style=" stroke:none;fill-rule:nonzero;fill:rgb(65.098039%,16.470588%,42.352941%);fill-opacity:1;" d="M 22.332031 48.484375 C 22.195312 48.394531 21.96875 48.484375 21.921875 48.621094 C 21.738281 48.988281 21.601562 49.351562 21.464844 49.671875 C 21.417969 49.855469 21.507812 50.039062 21.648438 50.085938 C 21.691406 50.085938 21.738281 50.085938 21.738281 50.085938 C 21.875 50.085938 22.011719 49.992188 22.058594 49.855469 C 22.148438 49.535156 22.289062 49.214844 22.46875 48.894531 C 22.5625 48.757812 22.46875 48.574219 22.332031 48.484375 Z M 22.332031 48.484375 "/>
</g>
<path style=" stroke:none;fill-rule:nonzero;fill:rgb(65.098039%,16.470588%,42.352941%);fill-opacity:1;" d="M 44.46875 49.949219 C 44.148438 50.132812 43.828125 50.269531 43.507812 50.449219 C 43.371094 50.542969 43.28125 50.726562 43.371094 50.863281 C 43.417969 50.953125 43.554688 51.046875 43.648438 51.046875 C 43.691406 51.046875 43.738281 51.046875 43.785156 51 C 44.105469 50.816406 44.46875 50.679688 44.789062 50.496094 C 44.925781 50.40625 45.019531 50.222656 44.925781 50.085938 C 44.835938 49.949219 44.652344 49.855469 44.46875 49.949219 Z M 44.46875 49.949219 "/>
<path style=" stroke:none;fill-rule:nonzero;fill:rgb(65.098039%,16.470588%,42.352941%);fill-opacity:1;" d="M 23.476562 46.289062 C 23.246094 46.609375 23.019531 46.882812 22.789062 47.15625 C 22.699219 47.296875 22.699219 47.523438 22.882812 47.617188 C 22.925781 47.660156 23.019531 47.660156 23.066406 47.660156 C 23.15625 47.660156 23.246094 47.617188 23.339844 47.523438 C 23.523438 47.25 23.75 46.976562 23.980469 46.65625 C 24.070312 46.519531 24.070312 46.335938 23.933594 46.199219 C 23.796875 46.152344 23.613281 46.152344 23.476562 46.289062 Z M 23.476562 46.289062 "/>
<g clip-path="url(#clip8)" clip-rule="nonzero">
<path style=" stroke:none;fill-rule:nonzero;fill:rgb(65.098039%,16.470588%,42.352941%);fill-opacity:1;" d="M 28.964844 54.703125 C 28.597656 54.75 28.234375 54.75 27.867188 54.75 C 27.683594 54.75 27.546875 54.886719 27.546875 55.070312 C 27.546875 55.253906 27.683594 55.390625 27.867188 55.390625 C 28.234375 55.390625 28.597656 55.390625 28.964844 55.34375 C 29.148438 55.34375 29.285156 55.164062 29.285156 55.023438 C 29.285156 54.84375 29.148438 54.703125 28.964844 54.703125 Z M 28.964844 54.703125 "/>
</g>
<path style=" stroke:none;fill-rule:nonzero;fill:rgb(65.098039%,16.470588%,42.352941%);fill-opacity:1;" d="M 25.078125 45.511719 C 25.214844 45.375 25.304688 45.28125 25.441406 45.144531 C 25.582031 45.007812 25.582031 44.824219 25.441406 44.6875 C 25.304688 44.550781 25.121094 44.550781 24.984375 44.6875 C 24.847656 44.824219 24.710938 44.960938 24.621094 45.054688 C 24.484375 45.191406 24.484375 45.375 24.621094 45.511719 C 24.664062 45.558594 24.757812 45.601562 24.847656 45.601562 C 24.941406 45.601562 25.03125 45.558594 25.078125 45.511719 Z M 25.078125 45.511719 "/>
<g clip-path="url(#clip9)" clip-rule="nonzero">
<path style=" stroke:none;fill-rule:nonzero;fill:rgb(65.098039%,16.470588%,42.352941%);fill-opacity:1;" d="M 54.667969 44.367188 C 54.53125 44.230469 54.351562 44.230469 54.210938 44.367188 C 54.074219 44.503906 54.074219 44.6875 54.210938 44.824219 C 57.460938 47.890625 58.832031 50.679688 57.964844 52.554688 C 57.046875 54.476562 53.617188 55.207031 48.816406 54.476562 C 45.15625 53.925781 41.039062 52.601562 36.921875 50.679688 C 32.074219 48.394531 27.820312 45.511719 25.03125 42.628906 C 22.378906 39.886719 21.28125 37.371094 22.058594 35.679688 C 22.699219 34.351562 24.390625 33.621094 27.042969 33.480469 C 27.226562 33.480469 27.363281 33.34375 27.363281 33.164062 C 27.363281 32.980469 27.179688 32.84375 27.042969 32.84375 C 24.070312 32.933594 22.195312 33.847656 21.464844 35.359375 C 20.550781 37.324219 21.648438 40.023438 24.527344 43.042969 C 27.410156 46.015625 31.710938 48.894531 36.648438 51.230469 C 37.472656 51.640625 38.296875 51.960938 39.117188 52.328125 C 38.890625 52.417969 38.707031 52.507812 38.480469 52.554688 C 38.296875 52.601562 38.203125 52.785156 38.296875 52.964844 C 38.339844 53.105469 38.480469 53.195312 38.617188 53.195312 C 38.660156 53.195312 38.707031 53.195312 38.707031 53.195312 C 39.074219 53.058594 39.394531 52.964844 39.757812 52.828125 C 39.851562 52.785156 39.894531 52.738281 39.941406 52.691406 C 43.007812 53.882812 46.023438 54.75 48.769531 55.164062 C 50.050781 55.34375 51.238281 55.4375 52.292969 55.4375 C 55.539062 55.4375 57.78125 54.566406 58.558594 52.875 C 59.519531 50.679688 58.144531 47.660156 54.667969 44.367188 Z M 54.667969 44.367188 "/>
</g>
<path style=" stroke:none;fill-rule:nonzero;fill:rgb(90.980392%,23.921569%,58.431373%);fill-opacity:1;" d="M 0.800781 26.054688 L 8.550781 28.226562 L 8.230469 29.367188 L 0.480469 27.195312 Z M 0.800781 26.054688 "/>
<path style=" stroke:none;fill-rule:nonzero;fill:rgb(90.980392%,23.921569%,58.431373%);fill-opacity:1;" d="M 12.804688 10.777344 C 13.085938 10.476562 13.359375 10.289062 13.621094 10.214844 C 13.882812 10.136719 14.136719 10.136719 14.382812 10.21875 C 14.628906 10.296875 14.867188 10.425781 15.101562 10.601562 C 15.335938 10.777344 15.5625 10.972656 15.789062 11.183594 L 18.289062 13.542969 L 17.476562 14.402344 L 14.796875 11.871094 C 14.496094 11.589844 14.234375 11.46875 14.003906 11.507812 C 13.769531 11.542969 13.570312 11.65625 13.398438 11.835938 C 13.222656 12.019531 13.085938 12.242188 12.984375 12.5 C 12.878906 12.761719 12.820312 13.023438 12.804688 13.292969 C 12.789062 13.5625 12.824219 13.808594 12.902344 14.035156 L 12.421875 13.578125 L 12.550781 13.445312 L 15.636719 16.355469 L 14.824219 17.214844 L 10.628906 13.257812 L 11.246094 12.601562 L 12.15625 13.121094 L 11.976562 13.359375 C 11.945312 13.027344 11.957031 12.707031 12.007812 12.394531 C 12.0625 12.089844 12.15625 11.796875 12.289062 11.523438 C 12.421875 11.25 12.59375 11 12.804688 10.777344 Z M 12.804688 10.777344 "/>
<path style=" stroke:none;fill-rule:nonzero;fill:rgb(90.980392%,23.921569%,58.431373%);fill-opacity:1;" d="M 30.761719 6.964844 C 30.378906 7.085938 29.972656 7.113281 29.542969 7.050781 C 29.113281 6.988281 28.710938 6.773438 28.332031 6.414062 L 29.015625 5.582031 C 29.3125 5.792969 29.574219 5.933594 29.800781 5.996094 C 30.027344 6.0625 30.289062 6.050781 30.59375 5.953125 C 30.832031 5.878906 31 5.757812 31.089844 5.59375 C 31.183594 5.425781 31.203125 5.253906 31.144531 5.074219 C 31.105469 4.953125 31.042969 4.855469 30.949219 4.789062 C 30.859375 4.71875 30.71875 4.667969 30.539062 4.640625 C 30.355469 4.609375 30.105469 4.601562 29.789062 4.617188 C 29.203125 4.644531 28.726562 4.589844 28.359375 4.449219 C 27.996094 4.308594 27.734375 3.984375 27.574219 3.480469 C 27.480469 3.179688 27.46875 2.882812 27.542969 2.589844 C 27.613281 2.292969 27.769531 2.023438 28.007812 1.785156 C 28.246094 1.542969 28.558594 1.363281 28.949219 1.238281 C 29.414062 1.09375 29.84375 1.0625 30.234375 1.152344 C 30.625 1.238281 30.957031 1.386719 31.230469 1.589844 L 30.5625 2.503906 C 30.414062 2.402344 30.21875 2.316406 29.972656 2.25 C 29.730469 2.179688 29.453125 2.195312 29.144531 2.292969 C 28.957031 2.351562 28.800781 2.457031 28.675781 2.613281 C 28.550781 2.769531 28.519531 2.941406 28.578125 3.128906 C 28.636719 3.316406 28.757812 3.445312 28.941406 3.515625 C 29.125 3.585938 29.425781 3.605469 29.84375 3.574219 C 30.554688 3.523438 31.089844 3.578125 31.449219 3.746094 C 31.804688 3.910156 32.046875 4.199219 32.179688 4.613281 C 32.292969 4.972656 32.296875 5.3125 32.191406 5.628906 C 32.089844 5.945312 31.914062 6.222656 31.660156 6.453125 C 31.40625 6.6875 31.109375 6.855469 30.761719 6.964844 Z M 30.761719 6.964844 "/>
<path style=" stroke:none;fill-rule:nonzero;fill:rgb(90.980392%,23.921569%,58.431373%);fill-opacity:1;" d="M 47.636719 5.011719 L 46.5625 5.382812 L 45.320312 0 L 46.535156 0.246094 Z M 45.710938 8.25 L 44.492188 8.007812 L 49.640625 0.867188 L 50.859375 1.113281 Z M 45.710938 8.25 "/>
<path style=" stroke:none;fill-rule:nonzero;fill:rgb(90.980392%,23.921569%,58.431373%);fill-opacity:1;" d="M 66.488281 9.695312 C 66.804688 9.960938 67.007812 10.21875 67.101562 10.476562 C 67.195312 10.734375 67.207031 10.988281 67.140625 11.238281 C 67.078125 11.488281 66.964844 11.734375 66.800781 11.976562 C 66.640625 12.222656 66.460938 12.460938 66.261719 12.699219 L 64.058594 15.335938 L 63.152344 14.578125 L 65.515625 11.75 C 65.78125 11.433594 65.886719 11.164062 65.832031 10.933594 C 65.78125 10.707031 65.660156 10.511719 65.46875 10.351562 C 65.273438 10.1875 65.042969 10.066406 64.777344 9.980469 C 64.511719 9.890625 64.246094 9.847656 63.976562 9.847656 C 63.707031 9.847656 63.464844 9.898438 63.246094 9.988281 L 63.667969 9.484375 L 63.8125 9.601562 L 61.089844 12.859375 L 60.183594 12.101562 L 63.882812 7.675781 L 64.574219 8.253906 L 64.113281 9.191406 L 63.863281 9.027344 C 64.191406 8.976562 64.511719 8.964844 64.824219 9 C 65.136719 9.035156 65.433594 9.109375 65.710938 9.226562 C 65.996094 9.34375 66.253906 9.5 66.488281 9.695312 Z M 66.488281 9.695312 "/>
<path style=" stroke:none;fill-rule:nonzero;fill:rgb(90.980392%,23.921569%,58.431373%);fill-opacity:1;" d="M 71.558594 28.015625 C 71.355469 27.457031 71.304688 26.933594 71.394531 26.4375 C 71.488281 25.941406 71.703125 25.507812 72.042969 25.132812 C 72.386719 24.757812 72.835938 24.46875 73.390625 24.269531 C 73.949219 24.066406 74.476562 24 74.980469 24.066406 C 75.480469 24.136719 75.925781 24.332031 76.316406 24.652344 C 76.707031 24.972656 77 25.410156 77.203125 25.964844 C 77.394531 26.492188 77.425781 27.019531 77.292969 27.554688 C 77.164062 28.085938 76.898438 28.535156 76.496094 28.902344 L 75.664062 28.007812 C 75.933594 27.777344 76.105469 27.511719 76.175781 27.21875 C 76.25 26.921875 76.234375 26.621094 76.125 26.320312 C 75.960938 25.875 75.675781 25.5625 75.257812 25.375 C 74.84375 25.191406 74.359375 25.199219 73.800781 25.402344 C 73.246094 25.601562 72.871094 25.90625 72.671875 26.316406 C 72.472656 26.722656 72.453125 27.148438 72.613281 27.59375 C 72.722656 27.894531 72.902344 28.136719 73.144531 28.316406 C 73.390625 28.5 73.691406 28.589844 74.042969 28.59375 L 73.984375 29.8125 C 73.4375 29.785156 72.941406 29.609375 72.503906 29.285156 C 72.0625 28.964844 71.75 28.539062 71.558594 28.015625 Z M 71.558594 28.015625 "/>
<path style=" stroke:none;fill-rule:nonzero;fill:rgb(90.980392%,23.921569%,58.431373%);fill-opacity:1;" d="M 0.925781 38.972656 C 0.925781 37.277344 2.300781 35.898438 4 35.898438 C 5.699219 35.898438 7.074219 37.277344 7.074219 38.972656 C 7.074219 40.671875 5.699219 42.050781 4 42.050781 C 2.300781 42.050781 0.925781 40.671875 0.925781 38.972656 Z M 0.925781 38.972656 "/>
<path style=" stroke:none;fill-rule:nonzero;fill:rgb(90.980392%,23.921569%,58.431373%);fill-opacity:1;" d="M 73.371094 38.972656 C 73.371094 37.277344 74.746094 35.898438 76.445312 35.898438 C 78.140625 35.898438 79.519531 37.277344 79.519531 38.972656 C 79.519531 40.671875 78.140625 42.050781 76.445312 42.050781 C 74.746094 42.050781 73.371094 40.671875 73.371094 38.972656 Z M 73.371094 38.972656 "/>
<path style=" stroke:none;fill-rule:nonzero;fill:rgb(65.098039%,16.470588%,42.352941%);fill-opacity:1;" d="M 10.746094 49.105469 L 2.996094 51.277344 L 2.675781 50.136719 L 10.429688 47.964844 Z M 10.746094 49.105469 "/>
<path style=" stroke:none;fill-rule:nonzero;fill:rgb(65.098039%,16.470588%,42.352941%);fill-opacity:1;" d="M 17.175781 63.050781 C 17.457031 63.347656 17.628906 63.628906 17.6875 63.898438 C 17.75 64.164062 17.734375 64.417969 17.640625 64.660156 C 17.546875 64.898438 17.40625 65.128906 17.214844 65.351562 C 17.027344 65.574219 16.820312 65.792969 16.59375 66.003906 L 14.09375 68.363281 L 13.28125 67.503906 L 15.964844 64.972656 C 16.265625 64.691406 16.402344 64.433594 16.375 64.203125 C 16.351562 63.96875 16.253906 63.761719 16.082031 63.578125 C 15.90625 63.394531 15.695312 63.246094 15.441406 63.128906 C 15.1875 63.007812 14.929688 62.933594 14.660156 62.902344 C 14.394531 62.875 14.148438 62.890625 13.917969 62.957031 L 14.398438 62.503906 L 14.527344 62.640625 L 11.441406 65.550781 L 10.628906 64.691406 L 14.824219 60.734375 L 15.441406 61.390625 L 14.875 62.265625 L 14.644531 62.074219 C 14.980469 62.0625 15.296875 62.089844 15.605469 62.160156 C 15.910156 62.230469 16.191406 62.34375 16.457031 62.492188 C 16.726562 62.640625 16.964844 62.828125 17.175781 63.050781 Z M 17.175781 63.050781 "/>
<path style=" stroke:none;fill-rule:nonzero;fill:rgb(65.098039%,16.470588%,42.352941%);fill-opacity:1;" d="M 28.964844 76.710938 C 28.578125 76.59375 28.230469 76.382812 27.914062 76.085938 C 27.597656 75.789062 27.390625 75.382812 27.285156 74.871094 L 28.320312 74.578125 C 28.441406 74.921875 28.578125 75.1875 28.726562 75.371094 C 28.875 75.554688 29.101562 75.691406 29.402344 75.785156 C 29.640625 75.863281 29.847656 75.859375 30.015625 75.773438 C 30.1875 75.691406 30.300781 75.558594 30.359375 75.378906 C 30.398438 75.257812 30.398438 75.144531 30.363281 75.035156 C 30.324219 74.921875 30.242188 74.804688 30.109375 74.675781 C 29.976562 74.546875 29.777344 74.398438 29.503906 74.230469 C 29.007812 73.917969 28.648438 73.601562 28.429688 73.277344 C 28.210938 72.949219 28.179688 72.535156 28.339844 72.03125 C 28.433594 71.730469 28.59375 71.480469 28.824219 71.28125 C 29.050781 71.078125 29.332031 70.949219 29.664062 70.886719 C 29.996094 70.824219 30.359375 70.855469 30.75 70.980469 C 31.214844 71.125 31.585938 71.347656 31.855469 71.640625 C 32.125 71.9375 32.3125 72.246094 32.417969 72.570312 L 31.347656 72.9375 C 31.285156 72.769531 31.175781 72.589844 31.011719 72.394531 C 30.851562 72.199219 30.617188 72.050781 30.308594 71.953125 C 30.117188 71.894531 29.929688 71.894531 29.738281 71.949219 C 29.546875 72.007812 29.421875 72.128906 29.363281 72.316406 C 29.304688 72.503906 29.332031 72.679688 29.441406 72.84375 C 29.550781 73.003906 29.785156 73.195312 30.148438 73.40625 C 30.761719 73.769531 31.167969 74.125 31.367188 74.460938 C 31.566406 74.800781 31.601562 75.179688 31.46875 75.59375 C 31.355469 75.953125 31.167969 76.234375 30.902344 76.433594 C 30.636719 76.636719 30.332031 76.761719 29.992188 76.804688 C 29.652344 76.851562 29.308594 76.820312 28.964844 76.710938 Z M 28.964844 76.710938 "/>
<path style=" stroke:none;fill-rule:nonzero;fill:rgb(65.098039%,16.470588%,42.352941%);fill-opacity:1;" d="M 48.257812 76.023438 L 47.410156 76.78125 L 44.183594 72.296875 L 45.398438 72.050781 Z M 47.734375 79.753906 L 46.515625 80 L 48.503906 71.429688 L 49.722656 71.183594 Z M 47.734375 79.753906 "/>
<path style=" stroke:none;fill-rule:nonzero;fill:rgb(65.098039%,16.470588%,42.352941%);fill-opacity:1;" d="M 62.640625 63.640625 C 62.953125 63.378906 63.246094 63.226562 63.515625 63.179688 C 63.785156 63.132812 64.039062 63.164062 64.273438 63.273438 C 64.507812 63.378906 64.726562 63.535156 64.9375 63.742188 C 65.148438 63.941406 65.355469 64.164062 65.554688 64.398438 L 67.757812 67.039062 L 66.851562 67.796875 L 64.484375 64.964844 C 64.222656 64.648438 63.972656 64.496094 63.742188 64.507812 C 63.507812 64.519531 63.292969 64.605469 63.101562 64.765625 C 62.90625 64.925781 62.742188 65.132812 62.613281 65.375 C 62.476562 65.621094 62.386719 65.875 62.339844 66.140625 C 62.292969 66.40625 62.296875 66.652344 62.351562 66.886719 L 61.925781 66.378906 L 62.070312 66.261719 L 64.789062 69.515625 L 63.882812 70.273438 L 60.1875 65.847656 L 60.875 65.273438 L 61.714844 65.890625 L 61.511719 66.109375 C 61.519531 65.773438 61.566406 65.457031 61.65625 65.15625 C 61.746094 64.855469 61.875 64.578125 62.039062 64.324219 C 62.203125 64.066406 62.402344 63.839844 62.640625 63.640625 Z M 62.640625 63.640625 "/>
<path style=" stroke:none;fill-rule:nonzero;fill:rgb(65.098039%,16.470588%,42.352941%);fill-opacity:1;" d="M 77.203125 51.984375 C 77 52.539062 76.707031 52.976562 76.316406 53.296875 C 75.925781 53.617188 75.484375 53.8125 74.980469 53.878906 C 74.476562 53.949219 73.949219 53.882812 73.394531 53.679688 C 72.835938 53.480469 72.386719 53.191406 72.046875 52.816406 C 71.703125 52.441406 71.488281 52.003906 71.394531 51.507812 C 71.300781 51.015625 71.355469 50.488281 71.554688 49.933594 C 71.746094 49.410156 72.0625 48.984375 72.507812 48.65625 C 72.945312 48.332031 73.4375 48.15625 73.984375 48.136719 L 74.046875 49.355469 C 73.691406 49.359375 73.390625 49.449219 73.148438 49.632812 C 72.898438 49.8125 72.722656 50.050781 72.613281 50.355469 C 72.449219 50.800781 72.46875 51.226562 72.671875 51.632812 C 72.871094 52.042969 73.246094 52.347656 73.804688 52.546875 C 74.359375 52.75 74.84375 52.757812 75.261719 52.574219 C 75.671875 52.386719 75.960938 52.074219 76.121094 51.628906 C 76.230469 51.324219 76.25 51.027344 76.179688 50.730469 C 76.105469 50.4375 75.9375 50.171875 75.667969 49.941406 L 76.492188 49.046875 C 76.898438 49.421875 77.164062 49.871094 77.292969 50.402344 C 77.421875 50.929688 77.390625 51.457031 77.203125 51.984375 Z M 77.203125 51.984375 "/>
</g>
</svg>
