<svg xmlns="http://www.w3.org/2000/svg" version="1.1" xmlns:xlink="http://www.w3.org/1999/xlink" xmlns:svgjs="http://svgjs.dev/svgjs" width="1500" height="326" viewBox="0 0 1500 326"><g transform="matrix(1,0,0,1,0.4454329259347105,1.0802242857141948)"><svg viewBox="0 0 322 70" data-background-color="#ffffff" preserveAspectRatio="xMidYMid meet" height="326" width="1500" xmlns="http://www.w3.org/2000/svg" xmlns:xlink="http://www.w3.org/1999/xlink"><g id="tight-bounds" transform="matrix(1,0,0,1,-0.09561960143398096,-0.23194999999998345)"><svg viewBox="0 0 322.19123920286796 70.4639" height="70.4639" width="322.19123920286796"><g><svg viewBox="0 0 322.19123920286796 70.4639" height="70.4639" width="322.19123920286796"><g><svg viewBox="0 0 322.19123920286796 70.4639" height="70.4639" width="322.19123920286796"><g id="textblocktransform"><svg viewBox="0 0 322.19123920286796 70.4639" height="70.4639" width="322.19123920286796" id="textblock"><g><svg viewBox="0 0 322.19123920286796 70.4639" height="70.4639" width="322.19123920286796"><g><svg><g></g><g></g></svg></g><g><svg><g><svg></svg></g><g></g></svg></g><g id="text-0"><svg viewBox="0 0 322.19123920286796 70.4639" height="70.4639" width="322.19123920286796"><g transform="matrix(1,0,0,1,0,0)"><svg width="219.48169999999996" viewBox="4.25 -34.05 135.64 43.55" height="70.4639" data-palette-color="#e83d95"><path d="M9.25-34.05L9.25 0 4.25 0 4.25-34.05 9.25-34.05ZM30.65-24.9L30.65-24.9Q33.25-24.9 34.75-24.03 36.25-23.15 36.95-21.68 37.65-20.2 37.85-18.35 38.05-16.5 38.05-14.55L38.05-14.55 38.05 0 33.05 0 33.05-15.6Q33.05-18.2 31.87-19.1 30.7-20 29.1-20L29.1-20Q27.5-20 25.85-19.35 24.2-18.7 22.9-17.6 21.6-16.5 20.9-15.15L20.9-15.15 20.9-17.95 21.7-17.95 21.7 0 16.7 0 16.7-24.4 20.5-24.4 21.55-20.1 20.3-19.95Q21.7-21.55 23.35-22.65 25-23.75 26.85-24.33 28.7-24.9 30.65-24.9ZM52.05 0.5L52.05 0.5Q49.5 0.5 47.02-0.7 44.55-1.9 42.95-4.8L42.95-4.8 46.75-7.3Q48.15-5.45 49.4-4.63 50.65-3.8 52.65-3.8L52.65-3.8Q54.25-3.8 55.12-4.63 56-5.45 56-6.65L56-6.65Q56-7.45 55.57-8.05 55.15-8.65 54.09-9.18 53.05-9.7 51.09-10.2L51.09-10.2Q47.5-11.15 45.55-12.7 43.59-14.25 43.59-17.6L43.59-17.6Q43.59-19.6 44.59-21.25 45.59-22.9 47.5-23.9 49.4-24.9 52-24.9L52-24.9Q55.09-24.9 57.3-23.63 59.5-22.35 60.75-20.6L60.75-20.6 56.9-17.75Q56.2-18.65 54.84-19.53 53.5-20.4 51.45-20.4L51.45-20.4Q50.2-20.4 49.15-19.7 48.09-19 48.09-17.75L48.09-17.75Q48.09-16.5 49.07-15.73 50.05-14.95 52.65-14.35L52.65-14.35Q57.05-13.3 58.9-11.63 60.75-9.95 60.75-7.2L60.75-7.2Q60.75-4.8 59.52-3.08 58.3-1.35 56.32-0.43 54.34 0.5 52.05 0.5ZM77.19-5.55L73.04-3.1 63.39-24.4 68.64-24.4 77.19-5.55ZM71.89 9.5L66.64 9.5 82.04-24.4 87.29-24.4 71.89 9.5ZM104.89-24.9L104.89-24.9Q107.49-24.9 108.99-24.03 110.49-23.15 111.19-21.68 111.89-20.2 112.09-18.35 112.29-16.5 112.29-14.55L112.29-14.55 112.29 0 107.29 0 107.29-15.6Q107.29-18.2 106.12-19.1 104.94-20 103.34-20L103.34-20Q101.74-20 100.09-19.35 98.44-18.7 97.14-17.6 95.84-16.5 95.14-15.15L95.14-15.15 95.14-17.95 95.94-17.95 95.94 0 90.94 0 90.94-24.4 94.74-24.4 95.79-20.1 94.54-19.95Q95.94-21.55 97.59-22.65 99.24-23.75 101.09-24.33 102.94-24.9 104.89-24.9ZM129.24 0.5L129.24 0.5Q125.49 0.5 122.74-1.13 119.99-2.75 118.49-5.6 116.99-8.45 116.99-12.2L116.99-12.2Q116.99-15.95 118.49-18.8 119.99-21.65 122.74-23.28 125.49-24.9 129.24-24.9L129.24-24.9Q132.79-24.9 135.69-22.98 138.59-21.05 139.89-17.85L139.89-17.85 135.14-15.85Q134.34-17.95 132.74-19.03 131.14-20.1 129.09-20.1L129.09-20.1Q126.09-20.1 124.09-18.03 122.09-15.95 122.09-12.2L122.09-12.2Q122.09-8.45 124.09-6.38 126.09-4.3 129.09-4.3L129.09-4.3Q131.14-4.3 132.74-5.38 134.34-6.45 135.14-8.55L135.14-8.55 139.89-6.55Q138.54-3.35 135.66-1.43 132.79 0.5 129.24 0.5Z" opacity="1" transform="matrix(1,0,0,1,0,0)" fill="#e83d95" class="wordmark-text-0" data-fill-palette-color="primary"></path></svg></g><g><svg xmlns="http://www.w3.org/2000/svg" xmlns:xlink="http://www.w3.org/1999/xlink" version="1.1" x="236.11779999999996" y="0" viewBox="4.3 11.799999999999997 82.45296025615374 67.50000000000001" style="enable-background:new 0 0 91 91;" xml:space="preserve" height="70.4639" width="86.073439202868" class="icon-cg-0" data-fill-palette-color="accent" id="cg-0"><g fill="#a62a6c" data-fill-palette-color="accent"><path d="M66.8 28.6c1.9 0 3.4-1.5 3.4-3.4 0-1.9-1.5-3.4-3.4-3.4-1.9 0-3.4 1.5-3.4 3.4C63.4 27.1 64.9 28.6 66.8 28.6zM66.8 23.2c1.1 0 2 0.9 2 2 0 1.1-0.9 2-2 2-1.1 0-2-0.9-2-2C64.8 24.1 65.7 23.2 66.8 23.2z" fill="#a62a6c" data-fill-palette-color="accent"></path><path d="M55.7 36c-1.9 0-3.4 1.5-3.4 3.4 0 1.9 1.5 3.4 3.4 3.4 1.9 0 3.4-1.5 3.4-3.4C59.1 37.5 57.5 36 55.7 36zM55.7 41.4c-1.1 0-2-0.9-2-2 0-1.1 0.9-2 2-2s2 0.9 2 2C57.7 40.5 56.8 41.4 55.7 41.4z" fill="#a62a6c" data-fill-palette-color="accent"></path><path d="M26.3 25.5c1.2 0.3 2.6 0.6 4.3 0.9 0 0 0.1 0 0.1 0 0.3 0 0.5-0.1 0.6-0.4 0.8-1.5 2.3-2.4 4-2.3 0.1 0 0.1 0 0.2 0 0.3 0 0.6-0.2 0.7-0.5 1-2.6 2.1-4.8 3.5-6.3 0.2-0.2 0.2-0.6 0.1-0.8-0.2-0.3-0.5-0.4-0.8-0.3-5.1 1.3-9.7 4.4-13 8.6-0.1 0.2-0.2 0.4-0.1 0.7S26.1 25.4 26.3 25.5zM37.3 17.7c-0.8 1.3-1.6 2.8-2.2 4.5-1.9 0.1-3.6 1.1-4.7 2.6-1-0.2-1.9-0.4-2.7-0.5C30.3 21.4 33.7 19.1 37.3 17.7z" fill="#a62a6c" data-fill-palette-color="accent"></path><path d="M62.5 27.6c-2.3 0.5-4.4 0.9-6.3 1.2-0.2 0-0.4 0.1-0.5 0.3-0.1 0.2-0.2 0.3-0.1 0.5 0.3 1.4 0.5 3 0.6 4.9 0 0.3 0.2 0.5 0.5 0.6 1.6 0.4 2.8 1.7 3.2 3.3 0.1 0.3 0.4 0.5 0.7 0.5h8.1c0.2 0 0.4-0.1 0.5-0.2 0.1-0.1 0.2-0.3 0.2-0.5-0.2-2.7-0.8-5.4-1.9-8-0.1-0.3-0.4-0.4-0.6-0.4-0.1 0-0.1 0-0.2 0-1.4 0-2.7-0.7-3.6-1.8C63 27.6 62.8 27.5 62.5 27.6zM66.5 31.1c0.8 2.1 1.4 4.2 1.6 6.4h-6.9c-0.6-1.7-1.9-3.1-3.6-3.7-0.1-1.4-0.3-2.7-0.5-3.8 1.6-0.2 3.3-0.6 5.2-1C63.4 30.3 64.9 31 66.5 31.1z" fill="#a62a6c" data-fill-palette-color="accent"></path><path d="M38.1 24.7c0.8 0.6 1.3 1.4 1.5 2.3 0.1 0.3 0.3 0.5 0.6 0.5 1.7 0.1 3.5 0.2 5.2 0.2 2.4 0 4.8-0.1 7.1-0.3 0.2 0 0.4-0.1 0.5-0.3 0.1-0.2 0.2-0.4 0.1-0.6-1.8-6.7-4.9-10.8-8.1-10.8-2.7 0-5.4 3.1-7.2 8.2C37.8 24.2 37.9 24.5 38.1 24.7zM45.1 17.1c1.9 0 4.6 2.8 6.5 9-3.5 0.3-7.1 0.3-10.8 0.1-0.3-0.9-0.8-1.6-1.5-2.2C41 19.7 43.2 17.1 45.1 17.1z" fill="#a62a6c" data-fill-palette-color="accent"></path><path d="M38.7 28.2c0-1.9-1.5-3.4-3.4-3.4-1.9 0-3.4 1.5-3.4 3.4s1.5 3.4 3.4 3.4C37.2 31.6 38.7 30.1 38.7 28.2zM35.3 30.2c-1.1 0-2-0.9-2-2s0.9-2 2-2c1.1 0 2 0.9 2 2S36.4 30.2 35.3 30.2z" fill="#a62a6c" data-fill-palette-color="accent"></path><path d="M21.7 35.2c1.4 0.5 2.5 1.7 2.8 3.2 0.1 0.3 0.4 0.5 0.7 0.5H33c0.4 0 0.7-0.3 0.7-0.7 0-1.6 0.2-3.3 0.4-5.1 0-0.3-0.1-0.6-0.4-0.7-1.5-0.6-2.6-2-2.8-3.6 0-0.3-0.3-0.5-0.6-0.6-2-0.4-3.8-0.8-5.5-1.2-0.3-0.1-0.6 0.1-0.8 0.3-1.3 2.2-2.2 4.6-2.7 7.1C21.2 34.7 21.4 35 21.7 35.2zM24.9 28.4c1.4 0.4 2.9 0.7 4.6 1 0.4 1.7 1.5 3.2 3.1 4-0.2 1.4-0.3 2.8-0.3 4.1h-6.6c-0.5-1.5-1.6-2.7-3-3.4C23.2 32.1 24 30.1 24.9 28.4z" fill="#a62a6c" data-fill-palette-color="accent"></path><path d="M55 26.5c0.1 0.3 0.4 0.5 0.7 0.5 0 0 0.1 0 0.1 0 1.8-0.2 3.7-0.6 6-1.1 0.3-0.1 0.6-0.4 0.5-0.8 0-0.6 0.1-1.3 0.4-1.9 0.1-0.3 0.1-0.6-0.1-0.8-3.2-3.3-7.2-5.7-11.5-6.8-0.3-0.1-0.6 0-0.8 0.3-0.2 0.3-0.1 0.6 0.1 0.8C52.3 19.1 53.9 22.4 55 26.5zM61.3 23.1c-0.2 0.5-0.3 1-0.4 1.5-1.8 0.4-3.3 0.7-4.8 0.9-0.9-3.1-2-5.8-3.4-7.9C56 18.8 58.9 20.7 61.3 23.1z" fill="#a62a6c" data-fill-palette-color="accent"></path><path d="M54.1 35.1c0.3-0.1 0.5-0.4 0.5-0.7-0.2-1.8-0.4-3.4-0.6-4.8-0.1-0.4-0.4-0.6-0.8-0.6-2.7 0.3-5.4 0.4-8 0.4-1.4 0-3-0.1-4.9-0.2-0.3 0-0.6 0.2-0.7 0.4-0.5 1.4-1.7 2.4-3.1 2.8-0.3 0.1-0.5 0.3-0.5 0.6-0.2 1.8-0.3 3.5-0.4 5 0 0.2 0.1 0.4 0.2 0.5 0.1 0.1 0.3 0.2 0.5 0.2h14.4c0.3 0 0.6-0.2 0.7-0.5C51.6 36.9 52.7 35.7 54.1 35.1zM50.1 37.5H36.9c0.1-1.2 0.1-2.4 0.3-3.7 1.5-0.5 2.7-1.6 3.4-3 1.7 0.1 3.2 0.2 4.5 0.2 2.5 0 5-0.1 7.5-0.3 0.2 1 0.3 2.2 0.5 3.5C51.7 34.7 50.6 36 50.1 37.5z" fill="#a62a6c" data-fill-palette-color="accent"></path><path d="M20.1 42.8c1.9 0 3.4-1.5 3.4-3.4 0-1.9-1.5-3.4-3.4-3.4-1.9 0-3.4 1.5-3.4 3.4C16.7 41.2 18.2 42.8 20.1 42.8zM20.1 37.4c1.1 0 2 0.9 2 2 0 1.1-0.9 2-2 2s-2-0.9-2-2C18.1 38.3 19 37.4 20.1 37.4z" fill="#a62a6c" data-fill-palette-color="accent"></path><path d="M14.2 39.4c0 2.4 1.5 4.6 3.7 5.5 1.6 8.7 7.3 16.3 15.2 20.1 0.2 0.1 0.4 0.1 0.6 0 0 0.2 0.2 0.4 0.4 0.5 3.5 1.5 7.1 2.3 10.9 2.3 3.8 0 7.4-0.8 10.9-2.3 0.2-0.1 0.4-0.3 0.4-0.5 0.1 0.1 0.2 0.1 0.3 0.1 0.1 0 0.2 0 0.3-0.1 9.6-4.6 15.7-14.5 15.7-25.2 0-3.5-0.7-7-1.9-10.3 1.2-1.1 1.9-2.7 1.9-4.3 0-3.3-2.7-5.9-5.9-5.9-0.8 0-1.6 0.2-2.4 0.5-5.2-5.2-12-8-19.3-8-13 0-24.2 9.2-27 22C15.8 34.7 14.2 36.9 14.2 39.4zM35.2 64.4l0.4-6.3c0.1-2 1.7-2.5 2.3-2.6 0.1 0 0.2 0 0.3 0 0.1 0 0.2 0 0.3-0.1l-0.4 0.3c-0.2 0.2-0.3 0.4-0.3 0.6 0 0.2 0.2 0.4 0.4 0.5l1.9 0.9-0.8 1.3c-0.1 0.2-0.1 0.4 0 0.7l3 6.4C39.9 65.9 37.5 65.3 35.2 64.4zM45.4 66.3c-0.1-0.1-0.3-0.2-0.4-0.2l-0.1 0c-0.1 0-0.2 0-0.2 0-0.2 0-0.3 0.1-0.4 0.2 0 0-0.1 0-0.1 0l0.5-9.4c0-0.2-0.1-0.4-0.3-0.6l-0.1-0.1 0.3-0.9h1l0.3 0.9-0.1 0.1c-0.2 0.1-0.3 0.4-0.3 0.6l0.5 9.4C45.8 66.3 45.6 66.3 45.4 66.3zM45 53.2c-2.4 0-4.4-2.3-4.4-5.1 0-2.8 2-5.1 4.4-5.1 2.4 0 4.4 2.3 4.4 5.1C49.4 50.9 47.4 53.2 45 53.2zM47.7 66.2l3-6.4c0.1-0.2 0.1-0.5 0-0.7l-0.8-1.3 1.9-0.9c0.2-0.1 0.4-0.3 0.4-0.5s-0.1-0.5-0.3-0.6l-0.4-0.3c0.2 0 0.4 0.1 0.5 0.1l0.2 0c1.1 0.2 2.3 1 2.4 2.6l0.4 5.2 0.1 1.1C52.6 65.3 50.2 66 47.7 66.2zM18.9 35c0.3-0.1 0.4-0.3 0.5-0.5 2.5-12.3 13.3-21.3 25.7-21.3 7.1 0 13.7 2.8 18.7 7.9 0.2 0.2 0.6 0.3 0.8 0.1 0.7-0.4 1.4-0.6 2.2-0.6 2.5 0 4.5 2 4.5 4.5 0 1.4-0.6 2.7-1.8 3.6-0.2 0.2-0.3 0.5-0.2 0.8 1.3 3.2 2 6.7 2 10.2 0 10.1-5.9 19.5-14.9 23.9 0 0-0.1 0-0.1 0.1L56 58c-0.2-2-1.6-3.6-3.6-3.9l-0.2 0c-0.4-0.1-1.6-0.2-2.4-0.3v0c0 0-0.1 0-0.1 0-0.1 0-0.2 0-0.3 0-0.3 0-0.6 0.3-0.7 0.6-0.1 0.3 0 0.6 0.2 0.7l1.3 1.1-1.6 0.8c-0.2 0.1-0.3 0.2-0.4 0.4-0.1 0.2 0 0.4 0.1 0.6l1 1.7-2 4.2-0.4-6.6 0.2-0.2c0.2-0.2 0.3-0.5 0.2-0.8l-0.6-1.9c0 0 0 0 0-0.1 2.4-0.8 4.1-3.3 4.1-6.2 0-2.8-1.5-5.1-3.7-6.1h3.3c1 2 3 3.2 5.3 3.2 2.2 0 4.2-1.2 5.3-3.2h7.2c-0.4 4.6-2.2 8.9-5.1 12.5-0.2-0.1-0.4-0.1-0.7-0.2-0.3 0-1.6-0.2-2.2-0.3l-0.7 0c1.3-0.7 2.3-2.3 2.3-4.1 0-2.5-1.7-4.5-3.9-4.5-2.1 0-3.9 2-3.9 4.5 0 1.8 0.9 3.3 2.2 4 0 0 0 0 0 0-0.2 0-0.3 0.1-0.4 0.2-0.1 0.1-0.2 0.3-0.2 0.5 0 0.3 0.3 0.6 0.6 0.6 0 0 0.1 0 0.1 0h1.5l2.4 0.1c0.5 0 1.8 0.2 2.2 0.3 0.2 0 0.5 0.1 0.7 0.2 0.3 0.1 0.6 0.1 0.8-0.2 3.4-4.1 5.4-9.1 5.8-14.4 0-0.2-0.1-0.4-0.2-0.5-0.1-0.1-0.3-0.2-0.5-0.2h-8.4c-0.3 0-0.5 0.2-0.6 0.4-0.7 1.7-2.3 2.8-4.2 2.8s-3.5-1.1-4.2-2.8c-0.1-0.3-0.4-0.4-0.6-0.4H24.9c-0.3 0-0.5 0.2-0.6 0.4-0.5 1.2-1.5 2.1-2.7 2.5-0.3 0.1-0.5 0.4-0.5 0.8 0.8 4.2 2.7 8.2 5.4 11.4 0.1 0.2 0.3 0.2 0.5 0.2 0.1 0 0.2 0 0.3-0.1 0.2-0.1 0.4-0.2 0.8-0.2 0.3 0 1.6-0.2 2.1-0.3l2.4-0.1 1.5 0c0 0 0 0 0 0 0.4 0 0.7-0.3 0.8-0.6 0-0.2-0.1-0.4-0.2-0.5 2-0.7 3.5-2.8 3.5-5.4 0-3.1-2.1-5.6-4.8-5.6-2.6 0-4.8 2.5-4.8 5.6 0 2.3 1.2 4.3 2.9 5.2l-1.4 0.1c-0.5 0-1.8 0.2-2.3 0.3-0.2 0-0.4 0.1-0.6 0.1-2.3-2.8-3.9-6.2-4.7-9.8 1.2-0.6 2.2-1.5 2.8-2.7H43c-2.2 0.9-3.7 3.3-3.7 6.1 0 2.9 1.7 5.4 4.1 6.2 0 0 0 0 0 0.1l-0.6 1.9c-0.1 0.3 0 0.6 0.2 0.8l0.2 0.2-0.4 6.6-2-4.2 1-1.7c0.1-0.2 0.1-0.4 0.1-0.6-0.1-0.2-0.2-0.3-0.4-0.4l-1.6-0.8 1.3-1.1c0.2-0.2 0.3-0.5 0.2-0.8-0.1-0.3-0.4-0.5-0.7-0.5l-0.4 0c0 0-0.1 0-0.1 0-0.6 0.1-1.6 0.2-2.2 0.3 0 0-0.1 0-0.1 0-2 0.3-3.5 1.8-3.6 3.9l-0.4 5.8c0 0 0 0-0.1-0.1-7.7-3.7-13.1-11-14.5-19.5 0-0.3-0.2-0.5-0.5-0.6-1.9-0.6-3.2-2.3-3.2-4.3C15.6 37.4 17 35.6 18.9 35zM57.9 53.1c-1.4 0-2.5-1.4-2.5-3.1 0-1.7 1.1-3.1 2.5-3.1 1.4 0 2.5 1.4 2.5 3.1C60.4 51.7 59.2 53.1 57.9 53.1zM33.3 53.1c-1.9 0-3.4-1.9-3.4-4.2 0-2.3 1.5-4.2 3.4-4.2 1.9 0 3.4 1.9 3.4 4.2C36.7 51.2 35.1 53.1 33.3 53.1z" fill="#a62a6c" data-fill-palette-color="accent"></path><path d="M74.9 31.3c0.4 0 0.8 0.1 1.1 0.1 0 0 0.1 0 0.1 0 0.3 0 0.6-0.3 0.7-0.6 0-0.4-0.2-0.7-0.6-0.8-0.4 0-0.8-0.1-1.2-0.1-0.4 0-0.7 0.3-0.8 0.6C74.2 30.9 74.5 31.3 74.9 31.3z" fill="#a62a6c" data-fill-palette-color="accent"></path><path d="M70.5 58c-0.6 0.5-1.3 0.9-1.9 1.4-0.3 0.2-0.4 0.7-0.2 1 0.1 0.2 0.4 0.3 0.6 0.3 0.1 0 0.3 0 0.4-0.1 0.7-0.5 1.3-0.9 2-1.4 0.3-0.2 0.4-0.7 0.1-1C71.3 57.8 70.8 57.7 70.5 58z" fill="#a62a6c" data-fill-palette-color="accent"></path><path d="M73.8 57c0.2 0 0.3-0.1 0.4-0.2 0.4-0.3 0.7-0.6 1.1-0.9 0.3-0.2 0.5-0.5 0.8-0.7 0.3-0.3 0.3-0.7 0.1-1-0.3-0.3-0.7-0.3-1-0.1-0.3 0.2-0.5 0.5-0.8 0.7-0.3 0.3-0.7 0.6-1 0.9-0.3 0.2-0.3 0.7-0.1 1C73.4 56.9 73.6 57 73.8 57z" fill="#a62a6c" data-fill-palette-color="accent"></path><path d="M65.7 61.4c-0.7 0.4-1.3 0.9-2 1.3-0.3 0.2-0.4 0.6-0.2 1 0.1 0.2 0.4 0.3 0.6 0.3 0.1 0 0.3 0 0.4-0.1 0.7-0.4 1.4-0.9 2-1.3 0.3-0.2 0.4-0.6 0.2-1C66.4 61.3 66 61.2 65.7 61.4z" fill="#a62a6c" data-fill-palette-color="accent"></path><path d="M9.9 76.3c-0.7-0.3-1.4-0.7-1.9-1.2-0.3-0.2-0.7-0.2-1 0.1-0.2 0.3-0.2 0.7 0.1 1 0.6 0.5 1.4 1 2.2 1.3 0.1 0 0.2 0.1 0.3 0.1 0.3 0 0.5-0.2 0.6-0.4C10.4 76.8 10.2 76.4 9.9 76.3z" fill="#a62a6c" data-fill-palette-color="accent"></path><path d="M78.2 53c0.2 0 0.4-0.1 0.5-0.2 0.6-0.6 1.1-1.2 1.7-1.8 0.3-0.3 0.2-0.7 0-1-0.3-0.3-0.7-0.2-1 0-0.5 0.6-1.1 1.1-1.6 1.7-0.3 0.3-0.3 0.7 0 1C77.9 52.9 78.1 53 78.2 53z" fill="#a62a6c" data-fill-palette-color="accent"></path><path d="M84.8 36c0.1 0.3 0.2 0.6 0.3 0.9 0.1 0.3 0.4 0.5 0.7 0.5 0.1 0 0.1 0 0.2 0 0.4-0.1 0.6-0.5 0.5-0.9-0.1-0.4-0.2-0.7-0.4-1.1-0.2-0.5-0.5-0.9-0.8-1.3-0.2-0.3-0.7-0.4-1-0.1-0.3 0.2-0.4 0.7-0.1 1C84.4 35.3 84.6 35.7 84.8 36z" fill="#a62a6c" data-fill-palette-color="accent"></path><path d="M86 39.6c-0.4-0.1-0.7 0.2-0.8 0.6-0.1 0.7-0.3 1.4-0.6 2.2-0.1 0.4 0 0.8 0.4 0.9 0.1 0 0.2 0 0.3 0 0.3 0 0.5-0.2 0.7-0.4 0.3-0.8 0.6-1.7 0.7-2.4C86.6 40 86.4 39.6 86 39.6z" fill="#a62a6c" data-fill-palette-color="accent"></path><path d="M33.1 75.8c-0.8 0.2-1.6 0.4-2.3 0.5-0.4 0.1-0.6 0.5-0.5 0.8 0.1 0.3 0.4 0.5 0.7 0.5 0 0 0.1 0 0.2 0 0.8-0.2 1.6-0.4 2.4-0.6 0.4-0.1 0.6-0.5 0.5-0.8C33.8 75.9 33.4 75.7 33.1 75.8z" fill="#a62a6c" data-fill-palette-color="accent"></path><path d="M81.8 48.3c0.1 0.1 0.3 0.1 0.4 0.1 0.2 0 0.4-0.1 0.6-0.3 0.5-0.7 1-1.4 1.4-2 0.2-0.3 0.1-0.8-0.2-1-0.3-0.2-0.8-0.1-1 0.2-0.4 0.6-0.8 1.3-1.3 1.9C81.4 47.6 81.5 48.1 81.8 48.3z" fill="#a62a6c" data-fill-palette-color="accent"></path><path d="M79.5 32.1c0.8 0.2 1.5 0.5 2.1 0.8 0.1 0.1 0.2 0.1 0.3 0.1 0.3 0 0.5-0.1 0.6-0.4 0.2-0.3 0-0.8-0.3-0.9-0.7-0.4-1.5-0.7-2.3-0.9-0.4-0.1-0.8 0.1-0.9 0.5S79.1 32 79.5 32.1z" fill="#a62a6c" data-fill-palette-color="accent"></path><path d="M38.8 74.1c-0.8 0.2-1.5 0.5-2.3 0.7-0.4 0.1-0.6 0.5-0.5 0.9 0.1 0.3 0.4 0.5 0.7 0.5 0.1 0 0.1 0 0.2 0 0.8-0.2 1.5-0.5 2.3-0.7 0.4-0.1 0.6-0.5 0.5-0.9C39.6 74.2 39.2 74 38.8 74.1z" fill="#a62a6c" data-fill-palette-color="accent"></path><path d="M49.9 69.9c-0.7 0.3-1.5 0.6-2.2 0.9-0.4 0.1-0.5 0.6-0.4 0.9 0.1 0.3 0.4 0.4 0.6 0.4 0.1 0 0.2 0 0.3-0.1 0.7-0.3 1.5-0.6 2.2-1 0.4-0.2 0.5-0.6 0.4-0.9C50.7 69.9 50.3 69.7 49.9 69.9z" fill="#a62a6c" data-fill-palette-color="accent"></path><path d="M15.5 77.6c-0.8-0.1-1.6-0.2-2.3-0.3-0.4-0.1-0.7 0.2-0.8 0.5-0.1 0.4 0.2 0.7 0.5 0.8 0.8 0.2 1.6 0.3 2.4 0.4 0 0 0 0 0.1 0 0.4 0 0.7-0.3 0.7-0.6C16.1 78 15.9 77.7 15.5 77.6z" fill="#a62a6c" data-fill-palette-color="accent"></path><path d="M26.8 77.1c-0.6 0.1-1.3 0.2-1.9 0.3-0.4 0-0.7 0.4-0.6 0.8 0 0.4 0.3 0.6 0.7 0.6 0 0 0.1 0 0.1 0 0.6-0.1 1.3-0.2 1.9-0.3l0.4-0.1L27.2 77 26.8 77.1z" fill="#a62a6c" data-fill-palette-color="accent"></path><path d="M5.7 70.5c0-0.4-0.3-0.7-0.7-0.7 0 0 0 0 0 0-0.4 0-0.7 0.3-0.7 0.7 0 0.9 0.2 1.8 0.5 2.6 0.1 0.3 0.4 0.4 0.7 0.4 0.1 0 0.2 0 0.3 0 0.4-0.1 0.5-0.5 0.4-0.9C5.8 71.9 5.7 71.2 5.7 70.5z" fill="#a62a6c" data-fill-palette-color="accent"></path><path d="M60.6 64.5c-0.7 0.4-1.4 0.8-2.1 1.2-0.3 0.2-0.5 0.6-0.3 0.9 0.1 0.2 0.4 0.4 0.6 0.4 0.1 0 0.2 0 0.3-0.1 0.7-0.4 1.4-0.8 2.1-1.2 0.3-0.2 0.4-0.6 0.3-1C61.3 64.4 60.9 64.3 60.6 64.5z" fill="#a62a6c" data-fill-palette-color="accent"></path><path d="M6.9 64.1c-0.3-0.2-0.8 0-0.9 0.3-0.4 0.8-0.7 1.6-1 2.3-0.1 0.4 0.1 0.8 0.4 0.9 0.1 0 0.2 0 0.2 0 0.3 0 0.6-0.2 0.7-0.5 0.2-0.7 0.5-1.4 0.9-2.1C7.4 64.7 7.2 64.3 6.9 64.1z" fill="#a62a6c" data-fill-palette-color="accent"></path><path d="M55.3 67.3c-0.7 0.4-1.4 0.7-2.1 1.1-0.3 0.2-0.5 0.6-0.3 0.9 0.1 0.2 0.4 0.4 0.6 0.4 0.1 0 0.2 0 0.3-0.1 0.7-0.4 1.5-0.7 2.2-1.1 0.3-0.2 0.5-0.6 0.3-0.9S55.7 67.1 55.3 67.3z" fill="#a62a6c" data-fill-palette-color="accent"></path><path d="M9.4 59.3c-0.5 0.7-1 1.3-1.5 1.9-0.2 0.3-0.2 0.8 0.2 1 0.1 0.1 0.3 0.1 0.4 0.1 0.2 0 0.4-0.1 0.6-0.3 0.4-0.6 0.9-1.2 1.4-1.9 0.2-0.3 0.2-0.7-0.1-1C10.1 59 9.7 59 9.4 59.3z" fill="#a62a6c" data-fill-palette-color="accent"></path><path d="M21.4 77.7c-0.8 0.1-1.6 0.1-2.4 0.1-0.4 0-0.7 0.3-0.7 0.7 0 0.4 0.3 0.7 0.7 0.7 0 0 0 0 0 0 0.8 0 1.6 0 2.4-0.1 0.4 0 0.7-0.4 0.7-0.7C22.1 78 21.8 77.7 21.4 77.7z" fill="#a62a6c" data-fill-palette-color="accent"></path><path d="M12.9 57.6c0.3-0.3 0.5-0.5 0.8-0.8 0.3-0.3 0.3-0.7 0-1-0.3-0.3-0.7-0.3-1 0-0.3 0.3-0.6 0.6-0.8 0.8-0.3 0.3-0.3 0.7 0 1 0.1 0.1 0.3 0.2 0.5 0.2C12.6 57.8 12.8 57.7 12.9 57.6z" fill="#a62a6c" data-fill-palette-color="accent"></path><path d="M77.6 55.1c-0.3-0.3-0.7-0.3-1 0-0.3 0.3-0.3 0.7 0 1 7.1 6.7 10.1 12.8 8.2 16.9-2 4.2-9.5 5.8-20 4.2-8-1.2-17-4.1-26-8.3-10.6-5-19.9-11.3-26-17.6-5.8-6-8.2-11.5-6.5-15.2 1.4-2.9 5.1-4.5 10.9-4.8 0.4 0 0.7-0.3 0.7-0.7 0-0.4-0.4-0.7-0.7-0.7C10.7 30.1 6.6 32.1 5 35.4c-2 4.3 0.4 10.2 6.7 16.8C18 58.7 27.4 65 38.2 70.1c1.8 0.9 3.6 1.6 5.4 2.4-0.5 0.2-0.9 0.4-1.4 0.5-0.4 0.1-0.6 0.5-0.4 0.9 0.1 0.3 0.4 0.5 0.7 0.5 0.1 0 0.2 0 0.2 0 0.8-0.3 1.5-0.5 2.3-0.8 0.2-0.1 0.3-0.2 0.4-0.3 6.7 2.6 13.3 4.5 19.3 5.4 2.8 0.4 5.4 0.6 7.7 0.6 7.1 0 12-1.9 13.7-5.6C88.2 68.9 85.2 62.3 77.6 55.1z" fill="#a62a6c" data-fill-palette-color="accent"></path></g></svg></g></svg></g></svg></g></svg></g></svg></g><g></g></svg></g><defs></defs></svg><rect width="322.19123920286796" height="70.4639" fill="none" stroke="none" visibility="hidden"></rect></g></svg></g></svg>